<svg xmlns="http://www.w3.org/2000/svg" xmlns:xlink="http://www.w3.org/1999/xlink" viewBox="0 0 607.79 401.87"><defs><style>.cls-1{fill:none;}.cls-2{isolation:isolate;}.cls-3{fill:#ffc843;}.cls-4{fill:#da3ab3;}.cls-5{fill:#da2d2f;}.cls-6{fill:#00b3e3;}.cls-7{fill:#00299f;}.cls-8{fill:#ff6b00;}.cls-9{fill:#da1800;}.cls-10{fill:#05ce7c;}.cls-11{fill:#055600;}.cls-12,.cls-24{fill:#3e3533;}.cls-12{opacity:0.2;mix-blend-mode:multiply;}.cls-13{fill:#e88d6a;}.cls-14{fill:#fefdfb;}.cls-15{fill:#d2baa7;}.cls-16{fill:#fff;}.cls-17{fill:#efcba7;}.cls-18{fill:#330e00;}.cls-19{fill:url(#linear-gradient);}.cls-20{fill:#d5614a;}.cls-21{fill:url(#linear-gradient-2);}.cls-22{fill:url(#linear-gradient-3);}.cls-23{fill:#e8795a;}.cls-25{fill:url(#linear-gradient-4);}.cls-26{fill:#f8e8d8;}.cls-27{fill:url(#linear-gradient-5);}.cls-28{fill:url(#linear-gradient-6);}.cls-29{fill:url(#linear-gradient-7);}.cls-30{fill:url(#linear-gradient-8);}.cls-31{fill:url(#linear-gradient-9);}.cls-32{fill:url(#linear-gradient-10);}.cls-33{fill:#174659;}.cls-34{fill:#275d75;}.cls-35{fill:url(#linear-gradient-11);}.cls-36{fill:#f0992e;}.cls-37{fill:url(#linear-gradient-12);}.cls-38{fill:#fbc0a4;}.cls-39{fill:#ff554a;}.cls-40{fill:url(#linear-gradient-13);}.cls-41{fill:#332625;}.cls-42{fill:#f69d7d;}.cls-43{fill:#f9b092;}.cls-44{fill:url(#linear-gradient-14);}.cls-45{fill:url(#linear-gradient-15);}.cls-46{fill:#cb4453;}.cls-47{fill:#dd5664;}.cls-48{fill:#60aed2;}.cls-49{fill:url(#linear-gradient-16);}.cls-50{fill:url(#linear-gradient-17);}.cls-51{fill:url(#linear-gradient-18);}.cls-52{fill:url(#linear-gradient-19);}.cls-53{fill:url(#linear-gradient-20);}.cls-54{fill:#3e7ea1;}.cls-55{fill:url(#linear-gradient-21);}.cls-56{fill:url(#linear-gradient-22);}.cls-57{fill:url(#linear-gradient-23);}.cls-58{fill:url(#linear-gradient-24);}.cls-59{fill:url(#linear-gradient-25);}.cls-60{fill:url(#linear-gradient-26);}.cls-61{fill:url(#linear-gradient-27);}.cls-62{fill:url(#linear-gradient-28);}.cls-63{fill:#d8936c;}.cls-64{fill:url(#linear-gradient-29);}.cls-65{fill:url(#linear-gradient-30);}.cls-66{clip-path:url(#clip-path);}.cls-67{fill:url(#linear-gradient-31);}.cls-68{fill:url(#linear-gradient-32);}.cls-69{fill:url(#linear-gradient-33);}.cls-70{fill:url(#linear-gradient-34);}.cls-71{fill:url(#linear-gradient-35);}.cls-72{fill:#ffc0a4;}.cls-73{fill:url(#linear-gradient-36);}.cls-74{fill:#fbc4a9;}.cls-75{fill:url(#linear-gradient-37);}.cls-76{fill:url(#linear-gradient-38);}.cls-77{fill:url(#linear-gradient-39);}.cls-78{fill:url(#linear-gradient-40);}.cls-79{fill:url(#linear-gradient-41);}.cls-80{fill:#ff5b90;}.cls-81{fill:#ba4e83;}.cls-82{fill:#a22f6d;}.cls-83{fill:url(#linear-gradient-42);}.cls-84{fill:#fddac9;}.cls-85{fill:#dc4e87;}.cls-86{fill:#fbc5af;}.cls-87{fill:url(#linear-gradient-43);}.cls-88{fill:url(#linear-gradient-44);}.cls-89{fill:url(#linear-gradient-45);}.cls-90{fill:url(#linear-gradient-46);}.cls-91{fill:url(#linear-gradient-47);}.cls-92{fill:#9b614a;}.cls-93{fill:#804a3f;}.cls-94{fill:#623a33;}.cls-95{fill:url(#linear-gradient-48);}.cls-96{fill:url(#linear-gradient-49);}.cls-97{fill:url(#linear-gradient-50);}.cls-98{fill:url(#linear-gradient-51);}.cls-99{fill:url(#linear-gradient-52);}.cls-100{fill:url(#linear-gradient-53);}.cls-101{fill:url(#linear-gradient-54);}.cls-102{fill:#f38100;}.cls-103{fill:url(#linear-gradient-55);}.cls-104{fill:url(#linear-gradient-56);}.cls-105{fill:url(#linear-gradient-57);}.cls-106{fill:url(#linear-gradient-58);}.cls-107{fill:url(#linear-gradient-59);}.cls-108{fill:url(#linear-gradient-60);}.cls-109{fill:#965840;}.cls-110{fill:url(#linear-gradient-61);}.cls-111{fill:#ed493d;}</style><linearGradient id="linear-gradient" x1="122.7" y1="427.59" x2="134.35" y2="306.6" gradientUnits="userSpaceOnUse"><stop offset="0" stop-color="#103b4a"/><stop offset="1" stop-color="#4588ad"/></linearGradient><linearGradient id="linear-gradient-2" x1="122.87" y1="449.36" x2="125.56" y2="208.28" gradientUnits="userSpaceOnUse"><stop offset="0" stop-color="#382e21"/><stop offset="1" stop-color="#594332"/></linearGradient><linearGradient id="linear-gradient-3" x1="133.02" y1="449.48" x2="135.71" y2="208.39" xlink:href="#linear-gradient-2"/><linearGradient id="linear-gradient-4" x1="123.26" y1="449.37" x2="125.94" y2="208.29" xlink:href="#linear-gradient-2"/><linearGradient id="linear-gradient-5" x1="600.03" y1="454.62" x2="602.72" y2="213.54" xlink:href="#linear-gradient-2"/><linearGradient id="linear-gradient-6" x1="598.48" y1="218.11" x2="602.43" y2="218.11" xlink:href="#linear-gradient-2"/><linearGradient id="linear-gradient-7" x1="608.54" y1="218.11" x2="612.49" y2="218.11" xlink:href="#linear-gradient-2"/><linearGradient id="linear-gradient-8" x1="595.95" y1="213.02" x2="603.23" y2="213.02" xlink:href="#linear-gradient-2"/><linearGradient id="linear-gradient-9" x1="608.87" y1="212.08" x2="616.16" y2="212.08" xlink:href="#linear-gradient-2"/><linearGradient id="linear-gradient-10" x1="600.79" y1="366.43" x2="622.38" y2="250.45" xlink:href="#linear-gradient"/><linearGradient id="linear-gradient-11" x1="599.67" y1="454.62" x2="602.36" y2="213.54" xlink:href="#linear-gradient-2"/><linearGradient id="linear-gradient-12" x1="524.06" y1="180.76" x2="512.39" y2="209.25" gradientUnits="userSpaceOnUse"><stop offset="0" stop-color="#f27002"/><stop offset="1" stop-color="#f35100"/></linearGradient><linearGradient id="linear-gradient-13" x1="504.64" y1="367.9" x2="562.49" y2="367.9" xlink:href="#linear-gradient-2"/><linearGradient id="linear-gradient-14" x1="535.25" y1="206.48" x2="541.6" y2="206.48" gradientUnits="userSpaceOnUse"><stop offset="0" stop-color="#f37000"/><stop offset="1" stop-color="#f35100"/></linearGradient><linearGradient id="linear-gradient-15" x1="525.01" y1="206.9" x2="531.06" y2="206.9" xlink:href="#linear-gradient-14"/><linearGradient id="linear-gradient-16" x1="457.55" y1="187.74" x2="433.05" y2="313.42" gradientUnits="userSpaceOnUse"><stop offset="0" stop-color="#f3c300"/><stop offset="1" stop-color="#f35100"/></linearGradient><linearGradient id="linear-gradient-17" x1="481.9" y1="192.48" x2="457.4" y2="318.17" xlink:href="#linear-gradient-16"/><linearGradient id="linear-gradient-18" x1="573.86" y1="249.44" x2="549.36" y2="375.12" xlink:href="#linear-gradient-16"/><linearGradient id="linear-gradient-19" x1="545.5" y1="333.42" x2="562.01" y2="250.34" xlink:href="#linear-gradient"/><linearGradient id="linear-gradient-20" x1="507.88" y1="325.94" x2="524.39" y2="242.86" xlink:href="#linear-gradient"/><linearGradient id="linear-gradient-21" x1="494.22" y1="194.89" x2="469.72" y2="320.57" xlink:href="#linear-gradient-16"/><linearGradient id="linear-gradient-22" x1="511.49" y1="237.28" x2="486.99" y2="362.97" xlink:href="#linear-gradient-16"/><linearGradient id="linear-gradient-23" x1="561.18" y1="454.25" x2="563.87" y2="213.17" xlink:href="#linear-gradient-2"/><linearGradient id="linear-gradient-24" x1="446.62" y1="274.98" x2="463.13" y2="191.9" xlink:href="#linear-gradient"/><linearGradient id="linear-gradient-25" x1="510.52" y1="453.68" x2="513.21" y2="212.6" xlink:href="#linear-gradient-2"/><linearGradient id="linear-gradient-26" x1="498.82" y1="285.36" x2="515.33" y2="202.28" xlink:href="#linear-gradient"/><linearGradient id="linear-gradient-27" x1="534.19" y1="184.91" x2="522.52" y2="213.4" xlink:href="#linear-gradient-12"/><linearGradient id="linear-gradient-28" x1="243.22" y1="171.88" x2="229.73" y2="247.42" gradientUnits="userSpaceOnUse"><stop offset="0" stop-color="#fff1dc"/><stop offset="1" stop-color="#ffdead"/></linearGradient><linearGradient id="linear-gradient-29" x1="191.83" y1="368.81" x2="241.1" y2="368.81" xlink:href="#linear-gradient-2"/><linearGradient id="linear-gradient-30" x1="192.38" y1="333.96" x2="229.81" y2="234.16" xlink:href="#linear-gradient"/><clipPath id="clip-path" transform="translate(-63.79 -51.46)"><path class="cls-1" d="M247.19,214.08c.5,1.72-.2,3.53-.9,5.17a2.76,2.76,0,0,1-.87,1.31,1,1,0,0,1-1.38-.23c-.22-.46.11-1,.36-1.42s.41-1.12,0-1.39c-.2-.13-.46-.12-.67-.23-.46-.25-.46-.9-.34-1.41a8,8,0,0,1,.77-2,2,2,0,0,1,1.59-1.23C246.46,212.65,247,213.37,247.19,214.08Z"/></clipPath><linearGradient id="linear-gradient-31" x1="178.16" y1="328.63" x2="215.59" y2="228.83" xlink:href="#linear-gradient"/><linearGradient id="linear-gradient-32" x1="221.09" y1="344.73" x2="258.52" y2="244.93" xlink:href="#linear-gradient"/><linearGradient id="linear-gradient-33" x1="188.97" y1="310.79" x2="211.15" y2="212.37" xlink:href="#linear-gradient"/><linearGradient id="linear-gradient-34" x1="169.94" y1="269.41" x2="192.12" y2="171" xlink:href="#linear-gradient"/><linearGradient id="linear-gradient-35" x1="237.74" y1="170.9" x2="224.25" y2="246.44" xlink:href="#linear-gradient-28"/><linearGradient id="linear-gradient-36" x1="291.22" y1="249.85" x2="296.22" y2="397.34" xlink:href="#linear-gradient-14"/><linearGradient id="linear-gradient-37" x1="302.13" y1="205.93" x2="308.01" y2="205.93" xlink:href="#linear-gradient-2"/><linearGradient id="linear-gradient-38" x1="291.49" y1="205.66" x2="297.05" y2="205.66" xlink:href="#linear-gradient-2"/><linearGradient id="linear-gradient-39" x1="292.09" y1="451.25" x2="294.78" y2="210.17" xlink:href="#linear-gradient-2"/><linearGradient id="linear-gradient-40" x1="302.47" y1="451.36" x2="305.15" y2="210.28" xlink:href="#linear-gradient-2"/><linearGradient id="linear-gradient-41" x1="300.33" y1="451.34" x2="303.02" y2="210.26" xlink:href="#linear-gradient-2"/><linearGradient id="linear-gradient-42" x1="408.22" y1="195.19" x2="381.89" y2="237.58" gradientUnits="userSpaceOnUse"><stop offset="0.01" stop-color="#efcba7"/><stop offset="1" stop-color="#bc7c59"/></linearGradient><linearGradient id="linear-gradient-43" x1="387.45" y1="218.21" x2="394.59" y2="218.21" xlink:href="#linear-gradient-2"/><linearGradient id="linear-gradient-44" x1="376.58" y1="217.82" x2="383.72" y2="217.82" xlink:href="#linear-gradient-2"/><linearGradient id="linear-gradient-45" x1="388.51" y1="452.32" x2="391.2" y2="211.24" xlink:href="#linear-gradient-2"/><linearGradient id="linear-gradient-46" x1="377.13" y1="452.2" x2="379.82" y2="211.12" xlink:href="#linear-gradient-2"/><linearGradient id="linear-gradient-47" x1="404.07" y1="192.62" x2="377.74" y2="235.01" xlink:href="#linear-gradient-42"/><linearGradient id="linear-gradient-48" x1="466.59" y1="453.19" x2="469.27" y2="212.11" xlink:href="#linear-gradient-2"/><linearGradient id="linear-gradient-49" x1="401.97" y1="401.72" x2="404.66" y2="160.64" xlink:href="#linear-gradient-2"/><linearGradient id="linear-gradient-50" x1="466.59" y1="453.19" x2="469.27" y2="212.11" xlink:href="#linear-gradient-2"/><linearGradient id="linear-gradient-51" x1="434.51" y1="452.84" x2="437.2" y2="211.76" xlink:href="#linear-gradient-2"/><linearGradient id="linear-gradient-52" x1="376.35" y1="401.44" x2="379.03" y2="160.36" xlink:href="#linear-gradient-2"/><linearGradient id="linear-gradient-53" x1="436.33" y1="452.86" x2="439.02" y2="211.78" xlink:href="#linear-gradient-2"/><linearGradient id="linear-gradient-54" x1="454.51" y1="244.31" x2="459.51" y2="391.81" xlink:href="#linear-gradient-14"/><linearGradient id="linear-gradient-55" x1="460.73" y1="244.1" x2="465.73" y2="391.6" xlink:href="#linear-gradient-14"/><linearGradient id="linear-gradient-56" x1="456.87" y1="211.12" x2="457.27" y2="175.52" xlink:href="#linear-gradient-2"/><linearGradient id="linear-gradient-57" x1="459.99" y1="223.85" x2="460.32" y2="194.11" xlink:href="#linear-gradient-2"/><linearGradient id="linear-gradient-58" x1="447.73" y1="219.67" x2="447.99" y2="196.85" xlink:href="#linear-gradient-2"/><linearGradient id="linear-gradient-59" x1="458.12" y1="207.24" x2="461.95" y2="207.24" xlink:href="#linear-gradient-2"/><linearGradient id="linear-gradient-60" x1="447.95" y1="207.24" x2="451.78" y2="207.24" xlink:href="#linear-gradient-2"/><linearGradient id="linear-gradient-61" x1="448.9" y1="219.39" x2="482.06" y2="171.89" xlink:href="#linear-gradient"/></defs><title>meeter</title><g class="cls-2"><g id="Warstwa_4" data-name="Warstwa 4"><path class="cls-3" d="M182.47,51.46a43.84,43.84,0,0,0-31.32,13.15,43.83,43.83,0,0,1,12.64,30.81h0a18.69,18.69,0,0,1,37.37,0V197.66h25.27V95.42a44,44,0,0,0-44-44" transform="translate(-63.79 -51.46)"/><path class="cls-4" d="M119.82,51.46a43.7,43.7,0,0,0-25.37,8.09,24.62,24.62,0,0,1,6.69,16.9v19a18.69,18.69,0,0,1,37.37,0h0a43.79,43.79,0,0,1,12.64-30.81,43.84,43.84,0,0,0-31.33-13.15" transform="translate(-63.79 -51.46)"/><path class="cls-5" d="M151.15,64.61a43.79,43.79,0,0,0-12.64,30.81V197.66h25.28V95.42a43.83,43.83,0,0,0-12.64-30.81" transform="translate(-63.79 -51.46)"/><path class="cls-6" d="M76.42,51.73H63.79V77H75.86V95.42A43.93,43.93,0,0,1,94.44,59.55a24.66,24.66,0,0,0-18-7.82" transform="translate(-63.79 -51.46)"/><path class="cls-7" d="M94.44,59.55A44,44,0,0,0,75.86,95.42V197.66h25.28V76.45a24.63,24.63,0,0,0-6.7-16.9" transform="translate(-63.79 -51.46)"/><path class="cls-8" d="M287,105.84a46,46,0,0,0-46,46c0,25.78,20.82,46,47.4,46,13.72,0,24.71-4.38,36.76-14.63L308.8,164c-7.47,6.35-13.3,8.1-20.88,8.1a18.93,18.93,0,0,1-10.65-2.81l-.84.35-25.6,10.57a45.05,45.05,0,0,1-9.19-20.72l25.95-10.72v0a19.89,19.89,0,0,1,11.7-16,17.74,17.74,0,0,1,7.18-1.5,20,20,0,0,1,12.24,4.2l.4.34,25.4-10.49A47,47,0,0,1,329,133a45.91,45.91,0,0,0-42-27.19m42,27.23,0,.1,0-.1m.1.22v0m.09.22,0,0,0,0m.09.19v0m5,12L308.85,156.2l25.49-10.53" transform="translate(-63.79 -51.46)"/><path class="cls-4" d="M329,133l0,0,0,0m.07.14.05.12-.05-.12m.07.16.08.18-.08-.18m.09.22.07.15-.07-.15m.09.19.08.18,5,11.74-5-11.74-.08-.18m-30.19,2-15.62,6.45-15,6.19-.92.38c-1.25,10.75,4.32,16.64,8.9,20l.78.54,28.12-11.61,3.47-1.44c0-.05-3-14.33-9.74-20.5" transform="translate(-63.79 -51.46)"/><path class="cls-9" d="M324.51,125.21l-25.4,10.49c6.73,6.17,9.73,20.44,9.74,20.5l25.49-10.53-5-11.74-.08-.18v0l-.07-.16,0,0-.08-.18v0l-.06-.12,0-.1,0-.05a45.21,45.21,0,0,0-4.48-7.82m-56.92,23.51-25.95,10.72a45,45,0,0,0,9.19,20.72l25.6-10.57.83-.35-.78-.53c-4.57-3.34-10.15-9.24-8.89-20" transform="translate(-63.79 -51.46)"/><path class="cls-8" d="M390.88,105.84a46,46,0,0,0-46,46c0,25.78,20.82,46,47.4,46,13.72,0,24.72-4.38,36.76-14.63L412.67,164c-7.46,6.35-13.29,8.1-20.88,8.1a19,19,0,0,1-10.65-2.81l-.83.35L354.7,180.16a44.93,44.93,0,0,1-9.18-20.72l25.94-10.72v0a19.91,19.91,0,0,1,11.7-16,17.74,17.74,0,0,1,7.18-1.5,20,20,0,0,1,12.25,4.2l.39.34,25.4-10.49a45.67,45.67,0,0,1,4.48,7.83,45.91,45.91,0,0,0-42-27.19m42,27.23.05.1-.05-.1m.1.22,0,0,0,0m.1.22v0m.08.19v0m5,12L412.73,156.2l25.48-10.53" transform="translate(-63.79 -51.46)"/><path class="cls-4" d="M432.86,133l0,0,0,0m.06.14.05.12-.05-.12m.07.16.08.18-.08-.18m.1.22.06.15-.06-.15m.08.19.08.18,5,11.74-5-11.74-.08-.18m-30.19,2-15.62,6.45-15,6.19-.91.38c-1.26,10.75,4.32,16.64,8.89,20l.78.54,28.13-11.61,3.46-1.44c0-.05-3-14.33-9.74-20.5" transform="translate(-63.79 -51.46)"/><path class="cls-9" d="M428.38,125.21,403,135.7c6.73,6.17,9.73,20.44,9.75,20.5l25.49-10.53-5-11.74-.08-.18v0l-.07-.16v0l-.08-.18,0,0-.05-.12-.05-.1,0-.05a45.82,45.82,0,0,0-4.47-7.82m-56.93,23.51-25.94,10.72a44.93,44.93,0,0,0,9.18,20.72l25.6-10.57.84-.35c-.27-.17-.53-.35-.79-.53-4.57-3.34-10.15-9.24-8.89-20" transform="translate(-63.79 -51.46)"/><path class="cls-8" d="M479.28,51.63H454v54.15h25.28V51.63m0,79.43H454v42a24.78,24.78,0,0,0,24.74,24.74h12.64V172.48h-12.1V131.06" transform="translate(-63.79 -51.46)"/><path class="cls-10" d="M491.38,105.78h-12.1v25.28h12.1V105.78m-37.38,0h-7.33v25.28H454V105.78" transform="translate(-63.79 -51.46)"/><polyline class="cls-11" points="415.49 54.32 390.22 54.32 390.22 79.6 415.49 79.6 415.49 54.32"/><path class="cls-8" d="M549.93,105.84a46,46,0,0,0-46,46c0,25.78,20.82,46,47.4,46,13.71,0,24.71-4.38,36.76-14.63L571.72,164c-7.47,6.35-13.3,8.1-20.88,8.1a19,19,0,0,1-10.66-2.81l-.83.35-25.6,10.57a45,45,0,0,1-9.19-20.72l25.95-10.72v0a19.89,19.89,0,0,1,11.7-16,17.74,17.74,0,0,1,7.18-1.5,20,20,0,0,1,12.24,4.2l.4.34,25.4-10.49A46.3,46.3,0,0,1,591.9,133a45.9,45.9,0,0,0-42-27.19m42,27.23,0,.1,0-.1m.1.22v0m.09.22,0,0,0,0m.08.19,0,0,0,0m5.06,12L571.77,156.2l25.49-10.53" transform="translate(-63.79 -51.46)"/><path class="cls-4" d="M591.9,133l0,0,0,0m.07.14,0,.12,0-.12m.07.16.08.18-.08-.18m.09.22.07.15-.07-.15m.09.19.07.18,5,11.74-5-11.74-.07-.18m-30.19,2-15.63,6.45-15,6.19-.92.38c-1.25,10.75,4.32,16.64,8.9,20,.25.19.52.37.78.54l28.12-11.61,3.47-1.44c0-.05-3-14.33-9.75-20.5" transform="translate(-63.79 -51.46)"/><path class="cls-9" d="M587.43,125.21,562,135.7c6.73,6.17,9.73,20.44,9.74,20.5l25.49-10.53-5-11.74-.08-.18,0,0-.06-.16,0,0-.08-.18v0l-.06-.12,0-.1,0-.05a45.21,45.21,0,0,0-4.48-7.82M530.5,148.72l-25.94,10.72a45,45,0,0,0,9.19,20.72l25.6-10.57.83-.35-.78-.53c-4.58-3.34-10.15-9.24-8.89-20" transform="translate(-63.79 -51.46)"/><path class="cls-4" d="M635.17,105.78H609.9V140A34.27,34.27,0,0,1,635.17,107v-1.18" transform="translate(-63.79 -51.46)"/><path class="cls-6" d="M644.13,105.78a34.39,34.39,0,0,0-9,1.18V140a9,9,0,0,1,15.3-6.34l17.87-17.88a34.07,34.07,0,0,0-24.21-10" transform="translate(-63.79 -51.46)"/><path class="cls-7" d="M635.17,107A34.27,34.27,0,0,0,609.9,140v57.81h25.27V107" transform="translate(-63.79 -51.46)"/></g><g id="OBJECTS"><ellipse class="cls-12" cx="61.69" cy="398.28" rx="39.78" ry="3.17"/><path class="cls-13" d="M98.82,438.92l1.73-6.59,7.42,1.1.13,7.36a14.29,14.29,0,0,1-6.57,1.65C97.59,442.51,98.82,438.92,98.82,438.92Z" transform="translate(-63.79 -51.46)"/><polygon class="cls-14" points="27.64 395.94 27.27 398.28 44.53 398.28 44.47 395.94 27.64 395.94"/><path class="cls-15" d="M91.42,447.4a9.86,9.86,0,0,1,2.47-4.65,22.12,22.12,0,0,0,2.84-3.37s-1.84-4.5-.91-5.06,7.89,0,7.89,0-.25,7.59.13,7.83,4-1.64,4.26-1.36.16,6.61.16,6.61Z" transform="translate(-63.79 -51.46)"/><path class="cls-13" d="M155.1,240.42c5.33,2.25,24.33,45.29,23.9,50.52s-23,33.29-24.62,35.24-5.75-.07-5.75-.07L152.42,316s4.32-19.17,8-26.14l-14.13-25.91Z" transform="translate(-63.79 -51.46)"/><path class="cls-16" d="M158.83,286.9l16.26-13.39s-12.78-29.12-20-33.09-1.33,41.37-1.33,41.37Z" transform="translate(-63.79 -51.46)"/><path class="cls-17" d="M155.2,255.87l-3.06,9.87c.66,8.6,1.63,16.05,1.63,16.05l5.06,5.11,2.24-1.84Z" transform="translate(-63.79 -51.46)"/><path class="cls-18" d="M153.77,295.17c-.35-1.27-.63-2.06-.63-2.06l-39.2,1.61s-.14.8-.35,2.17c.19.27.35.47.35.47C131.43,304.5,144.1,304.51,153.77,295.17Z" transform="translate(-63.79 -51.46)"/><path class="cls-13" d="M100.71,242.52c-4.14,1.83-22.7,43.19-22.28,48.42s30.37,35.17,30.37,35.17l1.46-7.94S101.58,293.24,97,289.85l14.13-25.91Z" transform="translate(-63.79 -51.46)"/><polygon class="cls-13" points="72.54 380.95 71.47 386.71 72.5 390.46 79.45 388.34 81.5 384.07 82.91 377.44 72.54 380.95"/><path class="cls-15" d="M159.75,442.2c-14.43-3.4-14.39-7-14.39-7a7.15,7.15,0,0,1-4.57,4.17c-2.38.74-5.53-1.18-5.53-1.18l-1.75,8.17h26.28a1.83,1.83,0,0,0,.82-.85S162.53,442.85,159.75,442.2Z" transform="translate(-63.79 -51.46)"/><path class="cls-19" d="M155.66,302.69s-3.15,51.77-3.4,56.47-5,74.77-5,74.77c-6.56,2.44-15,.57-15,.57l-.07-70.63-.94-37.67-.35-.67s-7.2,45.86-7.18,45.63-10.58,61.57-10.58,61.57c-6.45,3-15.34-.24-15.34-.24s5.73-60,5.48-63.47,8.91-70.78,8.91-70.78Z" transform="translate(-63.79 -51.46)"/><path class="cls-15" d="M146.69,437.21l1.56-4.57s-7.28-3-5.42,5.72Z" transform="translate(-63.79 -51.46)"/><polygon class="cls-16" points="69.72 394.87 69.23 397.09 95.93 397.09 96.01 394.87 69.72 394.87"/><path class="cls-20" d="M158.94,316.09s3.25-3.87,1.76-5.41-5.61,2.74-5.61,2.74Z" transform="translate(-63.79 -51.46)"/><path class="cls-20" d="M107.42,316s-2.9-4.15-1.28-5.55,5.34,3.24,5.34,3.24Z" transform="translate(-63.79 -51.46)"/><path class="cls-16" d="M159,314.52l-3.83-58.65c5.13-12.34,1.28-15.22-2.88-17-8.63-3.7-20.15-5-29.39-4.05a64.48,64.48,0,0,0-13.44,2.85c-3.84,1.27-8.78,4.86-8.78,4.86L105,260.75l2.28,7.24,4.94,18.47L108,315.08S140,327.57,159,314.52Z" transform="translate(-63.79 -51.46)"/><path class="cls-13" d="M123,237.68l-5.72-20.59,18.5,7.27-.14.68L135,238a5.46,5.46,0,0,1-5.08,3.63A6.48,6.48,0,0,1,123,237.68Z" transform="translate(-63.79 -51.46)"/><path class="cls-20" d="M131.07,231.56a21,21,0,0,1-5.89-1.44,35.23,35.23,0,0,1-4.93-2.41l-3-10.62,18.5,7.27-.14.68-.37,6.83C133.89,231.76,132.47,231.69,131.07,231.56Z" transform="translate(-63.79 -51.46)"/><path class="cls-13" d="M111.72,206.12s-5.57-1.27-4.8,5.38,5.59,6.79,7,7.08c0,0,2.66,11.85,17.28,10.71s12.22-12.45,12.11-20,.73-20.54-8.84-21.5S110.88,187.5,111.72,206.12Z" transform="translate(-63.79 -51.46)"/><path class="cls-21" d="M123.65,209.23a1.91,1.91,0,1,0,2-1.76A1.9,1.9,0,0,0,123.65,209.23Z" transform="translate(-63.79 -51.46)"/><path class="cls-22" d="M133.79,209.51a1.91,1.91,0,1,0,2-1.76A1.91,1.91,0,0,0,133.79,209.51Z" transform="translate(-63.79 -51.46)"/><path class="cls-23" d="M143,215.34a3.6,3.6,0,1,1-3.76-3.44A3.61,3.61,0,0,1,143,215.34Z" transform="translate(-63.79 -51.46)"/><path class="cls-23" d="M124.73,215.85a3.6,3.6,0,1,1-3.76-3.43A3.59,3.59,0,0,1,124.73,215.85Z" transform="translate(-63.79 -51.46)"/><path class="cls-23" d="M108.83,209.09c-.51,1.76.21,3.62.92,5.31a2.88,2.88,0,0,0,.89,1.34,1,1,0,0,0,1.42-.23c.23-.48-.11-1-.37-1.47s-.41-1.14,0-1.43c.21-.13.48-.12.69-.23.48-.25.47-.92.35-1.44a8.51,8.51,0,0,0-.79-2.07c-.35-.63-.91-1.28-1.63-1.27S109,208.36,108.83,209.09Z" transform="translate(-63.79 -51.46)"/><path class="cls-20" d="M132.16,217.09c0-.18.53-.42.72-1.18a1.4,1.4,0,0,0,0-.58,1.79,1.79,0,0,0-.25-.62,10.71,10.71,0,0,1-1.11-1.89,5,5,0,0,1-.16-2.33,13.53,13.53,0,0,1,.36-1.71c.24-.92.34-1.5.52-1.52s.41.61.38,1.63a11.4,11.4,0,0,0,.12,3.52c.17.53.64,1.07.95,1.76a2.52,2.52,0,0,1,.26,1.12,2.12,2.12,0,0,1-.27,1,1.74,1.74,0,0,1-1.05.89C132.35,217.24,132.17,217.17,132.16,217.09Z" transform="translate(-63.79 -51.46)"/><path class="cls-24" d="M138.56,204.16c-.17.33-1.55-.06-3.19.26s-2.81,1.13-3.08.88,0-.53.51-1a4.44,4.44,0,0,1,2.34-1.15,4.58,4.58,0,0,1,2.59.25C138.35,203.68,138.63,204,138.56,204.16Z" transform="translate(-63.79 -51.46)"/><path class="cls-24" d="M128.17,203.77c-.15.33-1.53,0-3.09.52s-2.55,1.45-2.86,1.25c-.14-.09-.07-.52.34-1.06a4.41,4.41,0,0,1,4.74-1.41C127.94,203.29,128.23,203.61,128.17,203.77Z" transform="translate(-63.79 -51.46)"/><path class="cls-20" d="M135.51,219.22c.09.15-.28.58-1.11.94a5.5,5.5,0,0,1-6.38-1.71c-.54-.72-.64-1.28-.5-1.36.3-.2,1.53,1.46,3.74,2S135.35,218.9,135.51,219.22Z" transform="translate(-63.79 -51.46)"/><path class="cls-13" d="M154.66,328.65c0-4.62.14-9.24.23-13.86,6.39-1.62,9.22-2.41,9.45-.27.25,2.36-3.12,3.84-3.12,3.84s2.4,2.91-.16,4-.53.7-1.92,4.48C158.05,329.83,156.5,328.65,154.66,328.65Z" transform="translate(-63.79 -51.46)"/><path class="cls-13" d="M160.71,313.42c-6.74.68-13.62,4.56-7.08,6.12,0,0-6.23,4.62,1,4.86,0,0-6.21,5.66,2.2,4.48Z" transform="translate(-63.79 -51.46)"/><path class="cls-13" d="M110.55,328.89c.4-4.61.69-9.22,1-13.83-6.23-2.18-9-3.23-9.39-1.12-.46,2.33,2.76,4.11,2.76,4.11s-2.65,2.68-.2,4,.47.74,1.51,4.63C107.07,329.76,108.72,328.72,110.55,328.89Z" transform="translate(-63.79 -51.46)"/><path class="cls-13" d="M105.89,313.17c6.66,1.29,13.16,5.76,6.51,6.73,0,0,5.79,5.16-1.42,4.75,0,0,5.68,6.2-2.6,4.27Z" transform="translate(-63.79 -51.46)"/><path class="cls-16" d="M100.71,242.52c-8.2,6.67-20.91,33.18-20.91,33.18l19.93,10.57,9.44-18.65Z" transform="translate(-63.79 -51.46)"/><path class="cls-25" d="M111.72,206.12c1.08.24,3.11,4.23,3.2,9.2l1.22.61.68-3s4.22-3.53,4-12.86a47.67,47.67,0,0,0,11.81,1.28A62.8,62.8,0,0,0,143,200.05s.53-11.87-9.8-14.52c-12.56-3.22-17.95.22-21.86,4.69S109.78,206,109.78,206A5.4,5.4,0,0,1,111.72,206.12Z" transform="translate(-63.79 -51.46)"/><ellipse class="cls-12" cx="545.67" cy="398.28" rx="37.42" ry="2.98"/><path class="cls-13" d="M591.61,357.62c0,4.3-1,8.95-.87,10.95s-3.43,13.16-3.85,18.33-2.54,51.34-2.54,51.34l4,5.43,4.57-2.23s.86-19.11,4.47-29.49,5.78-26.48,5.87-39.14S611,347.49,611,336.87,591.61,357.62,591.61,357.62Z" transform="translate(-63.79 -51.46)"/><path class="cls-13" d="M614,352.91s3.56,5.33,2.68,15c-1.8,19.78,2.29,33.8,3.06,39.13,1.3,9.06,3.13,16.93,3.28,25.82l8.81-3.29c.34-9.45-.43-19-.4-28.46,0-16.44,0-33.06.82-49.5C632.38,349,614,352.91,614,352.91Z" transform="translate(-63.79 -51.46)"/><path class="cls-20" d="M604.37,364c2.14-9.64,6.64-19,6.66-27.15,0-10.62-19.42,20.75-19.42,20.75a44.67,44.67,0,0,1-.37,5.37A54.79,54.79,0,0,0,604.37,364Z" transform="translate(-63.79 -51.46)"/><path class="cls-20" d="M631.87,362c.1-3.47.22-6.93.39-10.38.12-2.65-18.25,1.26-18.25,1.26s2.32,3.49,2.75,9.94C616,363.47,626.83,362.25,631.87,362Z" transform="translate(-63.79 -51.46)"/><polygon class="cls-13" points="559.25 381.44 558.78 387.37 560.13 391.23 566.66 389.05 568.23 384.65 568.05 378.15 559.25 381.44"/><polygon class="cls-14" points="513 395.78 512.49 398.28 529.8 398.28 529.89 395.78 513 395.78"/><path class="cls-16" d="M576.79,447.24a11.52,11.52,0,0,1,2.77-5,25.64,25.64,0,0,0,3.05-3.59s-1.55-3.81-.59-4.41,7.92,0,7.92,0-.73,7.11-.37,7.36,4.16-1.75,4.37-1.45-.26,7.05-.26,7.05Z" transform="translate(-63.79 -51.46)"/><path class="cls-16" d="M644.94,442.69c-12.48-3.15-12.88-6.94-12.89-6.94a6.29,6.29,0,0,1-4,4.3c-2.23.75-5.47-1.22-5.47-1.22l-.9,8.41h25.45S647.69,443.39,644.94,442.69Z" transform="translate(-63.79 -51.46)"/><path class="cls-16" d="M633.28,438.16s-1.32-3.6-1.74-5.54c-.2-.95-3.48,1.06-3.49,1.94S628.4,440.49,633.28,438.16Z" transform="translate(-63.79 -51.46)"/><polygon class="cls-14" points="557.87 395.78 557.35 398.28 583.24 398.28 583.33 395.78 557.87 395.78"/><path class="cls-13" d="M621,261.5c9.7,7.17,21.59,21.8,25.14,20.57,8-2.79-1-14.32-1-14.32l-12.89-14.37-9.37,4.88Z" transform="translate(-63.79 -51.46)"/><path class="cls-26" d="M628.34,247.6c3.09,1.76,15.22,16.66,15.22,16.66l-8,12.59-8.88-9.25Z" transform="translate(-63.79 -51.46)"/><path class="cls-13" d="M664.82,255.15c-1.17-1-2.3-2.05-3.41-3.13-4.84,7.37-19.75,18.21-20,18.54-2,2.16,7.23,9.89,7.23,9.89,5.27-6,11.94-16.58,16.68-24.95C665.12,255.38,665,255.27,664.82,255.15Z" transform="translate(-63.79 -51.46)"/><path class="cls-13" d="M671.43,244.89a1.24,1.24,0,0,0-.33-.44,3,3,0,0,0-1.34-.47,1.64,1.64,0,0,1-1.18-.73,2.62,2.62,0,0,1-.12-1,1,1,0,0,0-.41-.85c-.42-.22-.94.15-1.41,0a1,1,0,0,1-.65-.83,2.64,2.64,0,0,1,.14-1.11l2-7.27c0-.18.09-.41-.06-.52s-.49.1-.62.33a32,32,0,0,0-3.32,7.08c-.47,1.67-.71,3.54-1.67,5-.32.5-1,1-1.53.59a2.72,2.72,0,0,1-.79-1.48,2.33,2.33,0,0,0-1.41-1.5,3.21,3.21,0,0,0-1.79-.14.69.69,0,0,0-.53.27c-.15.26.07.58.27.8l1.5,1.65a9.13,9.13,0,0,1,1.65,2.77c.63,2.28,1.08,5.66-.8,8l4.56,3.36s7.21-10.59,7.74-11.67A2.37,2.37,0,0,0,671.43,244.89Z" transform="translate(-63.79 -51.46)"/><path class="cls-26" d="M627,270c4-4.09,3.76-7.85,2.2-10.79l.19-.16a7.28,7.28,0,0,0-2.93-12.33h0s-.5-.3-9.73-2.59c-5.48-1.46-11.4-4.69-21.62,1.79-2.32,2.11-7.25,3.61-11.2,7.38a7.28,7.28,0,0,0,1.41,13,7.18,7.18,0,0,0,2.51.45,7.59,7.59,0,0,0,1.07-.08c2.08,5.62,6.88,20.58,6.88,20.58l-3,15.07c21.59,11.27,40.11-1.73,40.11-1.73Z" transform="translate(-63.79 -51.46)"/><path class="cls-27" d="M601.38,241.67a5.92,5.92,0,0,1-9.33-2.4,7.4,7.4,0,0,1-6.19.1,7.22,7.22,0,0,1-4-4.66,4.47,4.47,0,0,1-3.73-2.71,4.79,4.79,0,0,1,.41-4.78,6.85,6.85,0,0,1-3.88-4.9,6.51,6.51,0,0,1,1.87-5.8,8.13,8.13,0,0,1-1.84-6.74,6.42,6.42,0,0,1,4.18-4.56,18,18,0,0,1,.19-3.6,5.05,5.05,0,0,1,1.49-2.8c1.45-1.27,3.61-1.24,5.54-1.13.19-2.26.88-4.2,2.89-5.25a6.93,6.93,0,0,1,6.53.11c2-1.74,5.57-3.2,7.78-1.79a9.12,9.12,0,0,1,7.19-1.22,7.91,7.91,0,0,1,4.91,4.65,8.59,8.59,0,0,1,6.86,1.91,8.46,8.46,0,0,1,3.08,6.37,8.25,8.25,0,0,1,1.4,9.44,9.73,9.73,0,0,1,4,6.81,8.3,8.3,0,0,1-2.7,6.78,7.55,7.55,0,0,1-1.07,5.13,6.82,6.82,0,0,1-3.9,3.11,8.05,8.05,0,0,1-3.85,5.53,6.93,6.93,0,0,1-6.21,0,7.49,7.49,0,0,1-5.27,4.52A7.08,7.08,0,0,1,601.38,241.67Z" transform="translate(-63.79 -51.46)"/><path class="cls-13" d="M610.52,246.8a9.34,9.34,0,0,1-4.82,1.51c-2.76.07-3.77-1.55-4.7-1.79l-9-20.7,16.21,7.31,0,.69Z" transform="translate(-63.79 -51.46)"/><path class="cls-20" d="M606.06,240.36a15.84,15.84,0,0,1-5-1.45,33.82,33.82,0,0,1-4.42-2.42L592,225.82l16.21,7.31,0,.69,1.18,6.86C608.33,240.57,607.2,240.5,606.06,240.36Z" transform="translate(-63.79 -51.46)"/><path class="cls-13" d="M586.56,214.8s-5.95-1.27-5.18,5.41,5.62,6.82,7,7.11c0,0,2.66,11.91,17.35,10.77S618.06,225.57,618,218s.73-20.63-8.88-21.6S585.71,196.09,586.56,214.8Z" transform="translate(-63.79 -51.46)"/><path class="cls-28" d="M602.42,218a2,2,0,1,1-2.06-1.88A2,2,0,0,1,602.42,218Z" transform="translate(-63.79 -51.46)"/><path class="cls-29" d="M612.49,218a2,2,0,1,1-2.06-1.88A2,2,0,0,1,612.49,218Z" transform="translate(-63.79 -51.46)"/><path class="cls-30" d="M603.22,213.41c.08-.11-.21-.5-.88-.88a5.09,5.09,0,0,0-2.91-.59,5.15,5.15,0,0,0-2.76,1.13,3.43,3.43,0,0,0-.61.67q-.16.28-.09.36c0,.05.17,0,.36-.07l.73-.37a6.8,6.8,0,0,1,5-.48C602.72,213.36,603.14,213.53,603.22,213.41Z" transform="translate(-63.79 -51.46)"/><path class="cls-31" d="M608.9,213.16c.1.1.48-.14,1.09-.44a6.79,6.79,0,0,1,5-.48l.79.22c.2,0,.33.06.37,0s0-.17-.16-.33a3.17,3.17,0,0,0-.72-.54,5.12,5.12,0,0,0-5.67.54C609,212.63,608.8,213.07,608.9,213.16Z" transform="translate(-63.79 -51.46)"/><path class="cls-20" d="M582.54,217.79c-.51,1.77.21,3.63.92,5.33a3,3,0,0,0,.9,1.35,1,1,0,0,0,1.43-.24c.23-.47-.11-1-.38-1.47s-.41-1.14,0-1.43c.21-.13.48-.12.7-.24.47-.25.47-.92.35-1.45a8.15,8.15,0,0,0-.8-2.07c-.35-.63-.9-1.29-1.63-1.27S582.75,217.06,582.54,217.79Z" transform="translate(-63.79 -51.46)"/><path class="cls-16" d="M598.73,241.27s7.23,6.25,8.9,6,1.84-6.56,1.84-6.56,4.14,1.13,4.87,2,1.81,8.67,1.81,8.67c-1.28,1.33-7-3.42-7.94-2.72s-4.59,6.43-5.44,6.34c0,0-7-9-6.75-10.49C596.12,243.79,598.73,241.27,598.73,241.27Z" transform="translate(-63.79 -51.46)"/><path class="cls-23" d="M600.45,225.83a3.94,3.94,0,1,1-4.12-3.76A3.93,3.93,0,0,1,600.45,225.83Z" transform="translate(-63.79 -51.46)"/><path class="cls-23" d="M618,225a3.82,3.82,0,1,1-4-3.65A3.81,3.81,0,0,1,618,225Z" transform="translate(-63.79 -51.46)"/><path class="cls-13" d="M584.74,328.34c.57,2.12,4.65,3.32,5.85,4.59s.3,3.4.3,3.4a14,14,0,0,1,.35,3c-.07,1.08-1.18,1.43-2.5.71s-1.46,1-3,1.05-2.16-1.17-3.73-.12S579,329,579,329Z" transform="translate(-63.79 -51.46)"/><path class="cls-13" d="M576.78,299.88s.05-24.21,2.84-33.53l12.83,3.49c-2.34,10.8-4.25,27.62-4.4,30a83,83,0,0,1-1,10.49c-1.06,6.87-2.59,14.21-2.26,18L579,329c-.66-3.28-1.93-24.59-2.15-28.51A4.3,4.3,0,0,1,576.78,299.88Z" transform="translate(-63.79 -51.46)"/><path class="cls-26" d="M590.66,266.05a7.08,7.08,0,0,1-2.5.49,7.29,7.29,0,0,1-7.43-7.16,7.33,7.33,0,0,1,4.65-6.95,7.62,7.62,0,0,1,2.51-.49,7.3,7.3,0,0,1,2.77,14.11Z" transform="translate(-63.79 -51.46)"/><path class="cls-26" d="M589.77,291.17c1-6.11,3.7-21.83,5.36-30.27l.15-.76-14.09-3.55-.22.77c-1.81,6.49-5.13,24.46-5.69,32.48A84,84,0,0,0,589.77,291.17Z" transform="translate(-63.79 -51.46)"/><path class="cls-20" d="M608.09,223.49c.26.26-.14,1-1,1.18s-1.55-.37-1.41-.71.64-.49,1.16-.6S607.84,223.21,608.09,223.49Z" transform="translate(-63.79 -51.46)"/><path class="cls-20" d="M609.18,227.2c.09.14-.25.56-1,.9a5.45,5.45,0,0,1-6-1.32c-.55-.63-.68-1.15-.54-1.25.31-.22,1.56,1.12,3.63,1.54S609,226.87,609.18,227.2Z" transform="translate(-63.79 -51.46)"/><path class="cls-32" d="M635.1,308.71c.74,11.07.71,49.69.71,49.69s-11.75,3.5-21.73,2l-.91-29.2-3.43,30.2S595.36,363,588,358.71c0,0-1.1-42.89,3.25-53.07l5.53-34.58s-7-20.95-7.49-22.16,2.73-3.43,3.63-2.15l9.63,22.19L624,267.72l-5.8-23.65s4.62.17,4.93,1.6l5.45,24.9S634.77,303.92,635.1,308.71Z" transform="translate(-63.79 -51.46)"/><polygon class="cls-33" points="555.55 264.03 551.31 269.94 549.79 289.61 549.27 273.15 549.85 268.23 555.55 264.03"/><path class="cls-34" d="M605.38,275.63l15.53-.87s2.47,9.24-7.07,9.83S605.38,275.63,605.38,275.63Z" transform="translate(-63.79 -51.46)"/><path class="cls-35" d="M585.73,213.48a2.85,2.85,0,0,0,2.64,3.87c-.17.8-.71,1.82-.51,2.62a1.65,1.65,0,0,0,3.3-.08,5.42,5.42,0,0,0-.26-2.39,5.1,5.1,0,0,0,1.56-4.75,5.83,5.83,0,0,0,4.25-1.2,5.56,5.56,0,0,0,2.19-3.7,4.73,4.73,0,0,0,4,1,5.53,5.53,0,0,0,3.7-2.42,6.88,6.88,0,0,0,4.1,2.92,5.51,5.51,0,0,0,4.38-.9,2.52,2.52,0,0,0,2.63,2.14,3.53,3.53,0,0,0,3-2,6.09,6.09,0,0,0,.53-3.67c-.48-3.79-3.24-7-6.6-8.81a23.27,23.27,0,0,0-11.08-2.32,22.38,22.38,0,0,0-10.42,2.12c-4.07,2.13-7,6.06-8.7,10.32a9.32,9.32,0,0,0-.84,3.54A5.84,5.84,0,0,0,585.73,213.48Z" transform="translate(-63.79 -51.46)"/><ellipse class="cls-12" cx="467.83" cy="398.28" rx="39.19" ry="3.13"/><path class="cls-36" d="M516.71,236.32c12.87-4.73,32.3-.23,32.3-.23l-1.27,7.25-29.17.69Z" transform="translate(-63.79 -51.46)"/><path class="cls-37" d="M516.9,216.19a4.77,4.77,0,0,0,3-1.19c.88-1.08-2-9.94-2-9.94a8.64,8.64,0,0,0,2.79-5.71c0-3.33-2.17-5-5.6-4.84s-8.39,4.78-8.39,4.78l2.52,1.29s.81,7.56,1.88,9.5S516.9,216.19,516.9,216.19Z" transform="translate(-63.79 -51.46)"/><path class="cls-38" d="M506.52,438.1l2.31-7.07,7.91,1.17-.36,7.92a16.06,16.06,0,0,1-7.18,1.77C505,442,506.52,438.1,506.52,438.1Z" transform="translate(-63.79 -51.46)"/><polygon class="cls-38" points="479.38 382.14 478.31 387.9 479.34 391.65 486.29 389.52 488.34 385.26 489.75 378.62 479.38 382.14"/><path class="cls-39" d="M566.59,443.38c-14.43-3.39-14.39-7-14.39-7a7.15,7.15,0,0,1-4.57,4.18c-2.38.73-5.53-1.18-5.53-1.18l-1.75,8.16h26.28a1.79,1.79,0,0,0,.82-.84S569.37,444,566.59,443.38Z" transform="translate(-63.79 -51.46)"/><path class="cls-40" d="M562.49,303.88s-3.14,51.76-3.39,56.47-5,74.77-5,74.77a23,23,0,0,1-13,.56l-1-70.63-1.92-37.67-2.31-.67s-7.2,45.86-7.18,45.63S519,434.9,519,434.9c-6.45,3-14.36-.25-14.36-.25s5.73-60.94,5.48-64.45S519,299.43,519,299.43Z" transform="translate(-63.79 -51.46)"/><path class="cls-41" d="M561.76,317.93c-9.3,3.08-30,7.66-45.44,1,.56-4.2,1.4-9.77,1.8-12.72l44,3.87C562,312.62,562,314.35,561.76,317.93Z" transform="translate(-63.79 -51.46)"/><path class="cls-18" d="M558.55,299.2c-.35-1.27-.63-2.06-.63-2.06l-39.32,1.61s-.14.8-.35,2.18c.19.27.35.47.35.47C536.15,308.56,548.86,308.57,558.55,299.2Z" transform="translate(-63.79 -51.46)"/><path class="cls-16" d="M560,261c5.15-12.15-10.29-19.37-13.14-20a51.62,51.62,0,0,0-5.57-.86,125.14,125.14,0,0,0-15.53.45c-7.86,1.21-16.16,25.17-16.16,25.17l2.29,7.14,5,18.19-3.51,23.66s31.14,11.84,50.67-.91Z" transform="translate(-63.79 -51.46)"/><path class="cls-38" d="M538.94,241.83c-1.65.95-5.08,1.27-6.93,1.49-2.06.25-3.84-1.93-3.84-1.93l-7.68-20.51,16.19,7.29,0,.69Z" transform="translate(-63.79 -51.46)"/><path class="cls-42" d="M534.49,235.4a16.32,16.32,0,0,1-5-1.45,33.07,33.07,0,0,1-4.41-2.42l-4.62-10.65,16.19,7.29,0,.69,1.17,6.85C536.76,235.6,535.62,235.53,534.49,235.4Z" transform="translate(-63.79 -51.46)"/><path class="cls-38" d="M514.67,209.88s-5.59-1.28-4.82,5.4,5.61,6.81,7,7.09c0,0,2.66,11.89,17.32,10.75s12.26-12.49,12.15-20,.73-20.6-8.86-21.57S513.82,191.2,514.67,209.88Z" transform="translate(-63.79 -51.46)"/><path class="cls-24" d="M527.22,212.7a1.91,1.91,0,1,0,2-1.82A1.91,1.91,0,0,0,527.22,212.7Z" transform="translate(-63.79 -51.46)"/><path class="cls-24" d="M537.39,212.7a1.92,1.92,0,1,0,2-1.82A1.92,1.92,0,0,0,537.39,212.7Z" transform="translate(-63.79 -51.46)"/><path class="cls-43" d="M546,219.12a3.61,3.61,0,1,1-3.77-3.44A3.61,3.61,0,0,1,546,219.12Z" transform="translate(-63.79 -51.46)"/><path class="cls-43" d="M527.72,219.64a3.61,3.61,0,1,1-3.78-3.44A3.61,3.61,0,0,1,527.72,219.64Z" transform="translate(-63.79 -51.46)"/><path class="cls-43" d="M511.76,212.86c-.51,1.76.22,3.62.93,5.32a2.83,2.83,0,0,0,.89,1.34,1,1,0,0,0,1.43-.23c.23-.47-.11-1-.38-1.47s-.41-1.14,0-1.43c.21-.13.48-.12.7-.23.47-.25.47-.93.35-1.45a8.15,8.15,0,0,0-.8-2.07c-.35-.63-.9-1.28-1.63-1.27S512,212.13,511.76,212.86Z" transform="translate(-63.79 -51.46)"/><path class="cls-42" d="M535.16,219.64c0-.18.4-.41.5-1a3,3,0,0,0-.11-1.17c-.12-.5-.26-1.13-.36-1.75-.42-2.53-.27-4.63.1-4.66s.82,2,1.23,4.44c.1.63.19,1.19.26,1.77a3,3,0,0,1-.23,1.71,1.54,1.54,0,0,1-.92.81C535.34,219.82,535.18,219.73,535.16,219.64Z" transform="translate(-63.79 -51.46)"/><path class="cls-44" d="M541.58,206.45c-.17.34-1.56,0-3.19.28s-2.81,1.11-3.1.86c-.12-.13,0-.54.51-1a4.73,4.73,0,0,1,5-.89C541.38,206,541.66,206.29,541.58,206.45Z" transform="translate(-63.79 -51.46)"/><path class="cls-45" d="M531.05,206.47c-.16.35-1.53.05-3.09.54s-2.55,1.44-2.88,1.24c-.14-.1-.08-.54.33-1.08a4.32,4.32,0,0,1,2.17-1.45,4.4,4.4,0,0,1,2.61,0C530.82,206,531.12,206.31,531.05,206.47Z" transform="translate(-63.79 -51.46)"/><path class="cls-38" d="M525.75,240.58c1.37,2.26,4.82,6.79,10,5.79,3.61-.71,5-3.65,5.58-6.23A62.29,62.29,0,0,0,525.75,240.58Z" transform="translate(-63.79 -51.46)"/><path class="cls-17" d="M543.8,240.45l-.95-.13a17.1,17.1,0,0,1-.8,2.73,9,9,0,0,1-4.43,5.09c-2.63,1.19-6.18.56-9-1.61a22.23,22.23,0,0,1-4.9-5.59l-1,.2a24.05,24.05,0,0,0,5.34,6.15,11.27,11.27,0,0,0,6.72,2.39A8,8,0,0,0,538,249a10,10,0,0,0,4.92-5.6A19.62,19.62,0,0,0,543.8,240.45Z" transform="translate(-63.79 -51.46)"/><path class="cls-46" d="M537.8,220.66a7.78,7.78,0,0,1-1.22.45,3.07,3.07,0,0,1-2.65,1c-1.08-.09-5.1-1.15-5.12-.93a4,4,0,0,0,.91,3.27C531.67,226.72,538.58,226.89,537.8,220.66Z" transform="translate(-63.79 -51.46)"/><path class="cls-47" d="M528.81,221.22a4,4,0,0,0,.91,3.27,5.51,5.51,0,0,0,5,1.28,17.07,17.07,0,0,0-1.55-2.77c-.26-.39-.54-.76-.83-1.13S528.88,220.66,528.81,221.22Z" transform="translate(-63.79 -51.46)"/><path class="cls-16" d="M529.25,219.56a6.55,6.55,0,0,0-.43,1.66,9.48,9.48,0,0,0,7.67,1.59c0-.58.07-1.14.09-1.71A8.2,8.2,0,0,1,529.25,219.56Z" transform="translate(-63.79 -51.46)"/><path class="cls-39" d="M553.53,438.39l1.56-4.56s-7.28-3-5.42,5.71Z" transform="translate(-63.79 -51.46)"/><polygon class="cls-16" points="476.56 396.06 476.07 398.28 502.77 398.28 502.85 396.06 476.56 396.06"/><polygon class="cls-48" points="449.69 227.27 449.9 217.38 453.05 239.62 449.69 227.27"/><polygon class="cls-49" points="452.93 184.86 454.17 190.85 461.23 195.42 460.93 187.27 452.93 184.86"/><polygon class="cls-50" points="485.23 184.63 480.91 186.83 481.26 194.23 484.54 189.72 485.23 184.63"/><path class="cls-51" d="M565.78,248.78c1.87,1.09,11.8,38.15,12.42,43.69s-8.29,33.28-9.58,35.39-2.44,1.63-2.44,1.63l-7-10,.53-32.27-1.43-25.56Z" transform="translate(-63.79 -51.46)"/><path class="cls-52" d="M545.05,245.69l6.48,83.36,11.13-1.88,1.07-7s3.77-.91,3.48-8.66c-.44-11.83-5-32.82-6.48-41.6l5-21.17c-2.63-1.93-17.46-7.6-17.46-7.6Z" transform="translate(-63.79 -51.46)"/><path class="cls-53" d="M525,246.88s4.86,36.19,5.07,51.33-.36,30.76-.36,30.76l-19.94-1.4s-1.72-9.58-1-14.13,3-21.84,3-21.84L511,282l-10.43-32L518,242.32Z" transform="translate(-63.79 -51.46)"/><path class="cls-54" d="M529.72,329l-19.94-1.4a86.92,86.92,0,0,1-1.11-9.24c6.57,2.28,14.4,3.42,21.24,4C529.81,326.39,529.72,329,529.72,329Zm21.81.08,11.13-1.88,1.07-7A115.93,115.93,0,0,1,551,322.29Z" transform="translate(-63.79 -51.46)"/><path class="cls-36" d="M509,322.31a125.91,125.91,0,0,0,20.82,2.86c0-.31,0-.63,0-1a124.23,124.23,0,0,1-20.95-2.91C509,321.63,509,322,509,322.31Z" transform="translate(-63.79 -51.46)"/><path class="cls-36" d="M529.8,326.39a157.86,157.86,0,0,1-20.61-2.72c.05.36.09.7.14,1a155.14,155.14,0,0,0,20.44,2.68C529.78,327.08,529.79,326.75,529.8,326.39Z" transform="translate(-63.79 -51.46)"/><path class="cls-36" d="M551.13,323.87l.07,1c3.92-.35,7.95-.87,12.06-1.59l.16-1C559.23,323,555.12,323.51,551.13,323.87Z" transform="translate(-63.79 -51.46)"/><path class="cls-36" d="M562.91,325.54l.16-1c-2.49.38-6.35.87-11.79,1.3l.08,1C556.6,326.39,560.39,325.92,562.91,325.54Z" transform="translate(-63.79 -51.46)"/><polygon class="cls-55" points="487.77 217.52 489.75 222.44 491.38 222.16 492.44 216.91 492.83 221.9 494.51 221.64 493.67 211.95 491.58 212.09 490.11 217.19 487.33 212.4 485.28 212.55 486.12 223.09 488.06 222.74 487.77 217.52"/><path class="cls-56" d="M500.54,250c-1.06.82-18.08,38-18.71,43.42s14.84,35.55,16.83,38.12a5,5,0,0,0,5.18,1.63l9.64-10-11.19-26s2.23-2.42-1.17-2.48c0,0,13.16-13.77,12.75-19.6C512.78,259.49,501.59,249.16,500.54,250Z" transform="translate(-63.79 -51.46)"/><path class="cls-57" d="M561.07,327.44l1.59-.27s3.11,9.77,3.11,11.07-6.68,7.17-6.68,7.17Z" transform="translate(-63.79 -51.46)"/><polygon class="cls-58" points="440.06 281.69 446.63 284.34 451.54 276.5 449.69 271.71 440.06 281.69"/><path class="cls-59" d="M515.33,328s-6.74,6.89-6.9,8.85,5.45,10.06,5.45,10.06Z" transform="translate(-63.79 -51.46)"/><polygon class="cls-60" points="502.39 278.02 500.67 281.57 498.87 275.71 499.13 273.17 502.39 278.02"/><path class="cls-61" d="M545.78,200.22a10,10,0,0,0,3-6.37,6.41,6.41,0,0,1-2.24,1.2,13.59,13.59,0,0,0,.35-13.62c-1.3,1.64-2.69,3.22-4.1,4.77a15.57,15.57,0,0,0,1.27-9.12,15.36,15.36,0,0,0-4.37-8c-1.25,3.16-2.35,6.56-3.59,9.72-.18-1.81-.54-3.45-.59-5.27a15.05,15.05,0,0,0-4.88,9.66c0-2.82,0-5.67,0-8.49a13.31,13.31,0,0,0-7.68,14.9,5.8,5.8,0,0,0-5.11-.92,5.88,5.88,0,0,0-3.59,3.78c-.91-1-1.82-2.07-2.73-3a10.57,10.57,0,0,0,2,9.47s-1.17,10.39.15,10.92,3.48,2.07,3.94,7.92l1.7-.54-.08-9.53a9.8,9.8,0,0,0,4.69-7.17s7.54,4,13.93,2.41L534,200.39l10.59,1.54,1.8,3.95Z" transform="translate(-63.79 -51.46)"/><polygon class="cls-14" points="434.22 395.76 433.66 398.28 452.22 398.28 452.32 395.76 434.22 395.76"/><path class="cls-39" d="M498,447.22a11.41,11.41,0,0,1,3-5,26.6,26.6,0,0,0,3.28-3.62s-1.67-4.85-.64-5.45,8.48,0,8.48,0-.78,8.17-.39,8.42,4.46-1.76,4.68-1.46-.28,7.1-.28,7.1Z" transform="translate(-63.79 -51.46)"/><ellipse class="cls-12" cx="151.78" cy="398.28" rx="37.34" ry="2.98"/><path class="cls-62" d="M218.21,189.51A25.64,25.64,0,0,0,209,197c-5.13,6.78-2.14,17.57-7.2,24.65-2,2.74-4.9,4.55-6.88,7.28a13.87,13.87,0,0,0-2.09,11.4c.77,2.93,2.51,5.62,2.56,8.67.09,5.32-4.86,9.15-6.36,14.23C187.27,269,191.22,276,196.87,277c3.94.76,8.23-1,11.9.73,4.23,2,5.77,7.47,9.14,10.82a11.29,11.29,0,0,0,14.87.68c2-1.65,3.68-4.1,6.18-4.32s4.57,1.94,6.81,3.17c4.91,2.69,11.37.69,14.9-3.81s4.4-10.94,3.17-16.66c-.88-4.12-2.75-8.15-2.31-12.35.38-3.73,2.53-7,3.74-10.49a19.19,19.19,0,0,0-1.58-16.27c-1.82-2.94-4.11-5.58-5.48-8.79-1.82-4.28-1.84-9.16-3-13.68a26.52,26.52,0,0,0-21.71-19.28A27.83,27.83,0,0,0,218.21,189.51Z" transform="translate(-63.79 -51.46)"/><path class="cls-63" d="M209.35,244.12s-2.24-6.18.94-9.65,18.65-2.27,18.65-2.27,19-.78,21.34,3.85-1,15.48-1,15.48Z" transform="translate(-63.79 -51.46)"/><path class="cls-38" d="M193.79,438.92l1.73-6.59,7.42,1.1.13,7.36a14.29,14.29,0,0,1-6.57,1.65C192.56,442.51,193.79,438.92,193.79,438.92Z" transform="translate(-63.79 -51.46)"/><polygon class="cls-38" points="163.82 383.27 163.17 388.62 164.34 392.11 170.68 390.14 172.34 386.17 173.26 379.99 163.82 383.27"/><path class="cls-39" d="M250,443.83c-13.63-3.16-13.8-6.53-13.8-6.53a6.06,6.06,0,0,1-4,3.88c-2.18.68-5.22-1.1-5.22-1.1l-1.15,7.6h24.45a1.56,1.56,0,0,0,.71-.79S252.59,444.43,250,443.83Z" transform="translate(-63.79 -51.46)"/><path class="cls-64" d="M241,303.3c-4.7-.33-9.39-.75-14.11-1.06-9.18-.61-18.31-.14-27.33-1.93-1.27,17.81-7.72,135.4-7.72,135.4s7.55,3.06,13.38.23l13.22-117.32,2.19.62,5.15,117.42a21.34,21.34,0,0,0,12.06-.52s3.31-84.8,3.27-89.18C241.07,343.78,241,317.43,241,303.3Z" transform="translate(-63.79 -51.46)"/><path class="cls-39" d="M237.53,439.19l1.19-4.25s-6.95-2.78-4.72,5.31Z" transform="translate(-63.79 -51.46)"/><polygon class="cls-16" points="162.01 396.21 161.69 398.28 186.52 398.28 186.46 396.21 162.01 396.21"/><polygon class="cls-14" points="122.61 395.94 122.24 398.28 139.5 398.28 139.44 395.94 122.61 395.94"/><path class="cls-39" d="M186.39,447.4a9.86,9.86,0,0,1,2.47-4.65,22.12,22.12,0,0,0,2.84-3.37s-1.84-4.5-.91-5.06,7.89,0,7.89,0-.25,7.59.13,7.83,4-1.64,4.26-1.36.16,6.61.16,6.61Z" transform="translate(-63.79 -51.46)"/><path class="cls-38" d="M203.28,284.23c3-4.77,4.66-14.68,4.66-14.68l-9.22-4.17-2.49,7.86Z" transform="translate(-63.79 -51.46)"/><path class="cls-42" d="M200.5,266.19c-.62-.17-1.25-.33-1.89-.47l-1.26,4,7.27,3.94a11.58,11.58,0,0,0,2.21,1c.73-2.86,1.11-5.11,1.11-5.11Z" transform="translate(-63.79 -51.46)"/><path class="cls-65" d="M213.63,242.44l-.65-5.62a83.7,83.7,0,0,1,15.21-1.58,127.61,127.61,0,0,1,15,1.48l-1.47,7.85Z" transform="translate(-63.79 -51.46)"/><path class="cls-16" d="M254.26,253.21a109.25,109.25,0,0,1-14,6.88c-1.67.66-3.41,1.28-5.15,1.83-4.63,1.44-9.32,2.3-13.11,1.66a14.93,14.93,0,0,1-7.07-3.33,23.66,23.66,0,0,1-4.76-5.42,37.34,37.34,0,0,1-4.4-9.45s2.36-1.22,5.53-2.44a46.57,46.57,0,0,1,4.76-1.59l.7-.2c5-1.52,11.47-5.11,22.4,1,.58.31,1.18.66,1.79,1a37,37,0,0,0,3.45,2.05C247.66,247,251.38,249.05,254.26,253.21Z" transform="translate(-63.79 -51.46)"/><path class="cls-38" d="M222.22,242.14a10.43,10.43,0,0,0,4.94,1.44,5.91,5.91,0,0,0,4.32-1.72L237.06,222l-14.74,7,.07.66Z" transform="translate(-63.79 -51.46)"/><path class="cls-42" d="M225.59,236a14,14,0,0,0,4.64-1.4,26.79,26.79,0,0,0,4-2.33L237.06,222l-14.74,7,.07.66-.09,6.59C223.39,236.14,224.5,236.08,225.59,236Z" transform="translate(-63.79 -51.46)"/><path class="cls-16" d="M244.53,259.48l-33.66-11.41s-8.84,8.33-2.67,16.8L197.29,304.3s24.7,12,45.64,1.1L239.73,283S242.71,263.35,244.53,259.48Z" transform="translate(-63.79 -51.46)"/><path class="cls-38" d="M244.37,211.19s5.43-1.24,4.68,5.24-5.45,6.62-6.83,6.9c0,0-2.59,11.54-16.83,10.43s-11.9-12.13-11.8-19.44-.71-20,8.61-20.95S245.2,193.05,244.37,211.19Z" transform="translate(-63.79 -51.46)"/><path class="cls-24" d="M227.87,209.83c-.07-.09.21-.47.86-.83a4.87,4.87,0,0,1,2.81-.57,4.92,4.92,0,0,1,2.68,1.09,3.25,3.25,0,0,1,.59.65c.11.17.13.29.09.34s-.16,0-.34-.08l-.71-.36a6.43,6.43,0,0,0-4.87-.46C228.35,209.78,228,210,227.87,209.83Z" transform="translate(-63.79 -51.46)"/><path class="cls-24" d="M222.37,209.59c-.1.1-.46-.14-1.05-.43a6.9,6.9,0,0,0-2.4-.71,7.11,7.11,0,0,0-2.47.24l-.76.22c-.19.05-.32.07-.35,0s0-.16.16-.32a3.07,3.07,0,0,1,.7-.52,5,5,0,0,1,5.48.53C222.25,209.09,222.46,209.51,222.37,209.59Z" transform="translate(-63.79 -51.46)"/><path class="cls-43" d="M229.82,221.9a3.5,3.5,0,1,0,3.66-3.34A3.49,3.49,0,0,0,229.82,221.9Z" transform="translate(-63.79 -51.46)"/><path class="cls-43" d="M214,221.17a3.5,3.5,0,1,0,3.66-3.34A3.49,3.49,0,0,0,214,221.17Z" transform="translate(-63.79 -51.46)"/><path class="cls-24" d="M229.22,214.46a1.92,1.92,0,1,0,2-1.82A1.91,1.91,0,0,0,229.22,214.46Z" transform="translate(-63.79 -51.46)"/><path class="cls-24" d="M218.33,214a1.91,1.91,0,1,0,2-1.83A1.92,1.92,0,0,0,218.33,214Z" transform="translate(-63.79 -51.46)"/><g class="cls-66"><polygon class="cls-42" points="179.45 165.08 181.87 169.39 179.45 169.39 179.45 165.08"/><polygon class="cls-42" points="181.01 161.16 183.9 166.33 183.9 169.39 181.87 169.39 179.45 165.08 179.45 161.16 181.01 161.16"/><polygon class="cls-42" points="183.9 166.33 181.01 161.16 183.9 161.16 183.9 166.33"/></g><path class="cls-42" d="M255.63,271.16s-11-1-10.79,2.16c.12,1.68.31,3.36.46,5a59.1,59.1,0,0,0,10.42-2.45C255.71,273.85,255.69,272.11,255.63,271.16Z" transform="translate(-63.79 -51.46)"/><path class="cls-42" d="M228.86,222.7c.14.09.06.58-.38,1.23a5.52,5.52,0,0,1-5.43,2.09c-.77-.18-1.16-.49-1.11-.66.11-.37,1.8-.13,3.64-.87S228.53,222.5,228.86,222.7Z" transform="translate(-63.79 -51.46)"/><path class="cls-42" d="M224.75,220.79c.08,0,.2.21-.05.48a.77.77,0,0,1-.54.22.87.87,0,0,1-.4-.07,1,1,0,0,1-.38-.3,1.61,1.61,0,0,1,.1-1.85,8.77,8.77,0,0,0,.86-1.23,10.28,10.28,0,0,0,.76-2.54c.15-.72.31-1.19.5-1.19s.36.46.45,1.24a4.87,4.87,0,0,1-1.57,4.46.89.89,0,0,0-.29.6c-.06.08.12.2.24.21S224.66,220.78,224.75,220.79Z" transform="translate(-63.79 -51.46)"/><path class="cls-38" d="M184.69,248c-.24-.95,1.28-4.83,2-7.3s.36-5.06-.42-5.18-1,4.7-2.6,4.09-2-3-2.39-5.31-.53-8.18-1.7-7.65.06,9-.86,9.17c-.64.11-2.32-8.38-3.74-8.31s2.33,8.63,1.48,9.53-3.47-7.76-4.76-7.1,3.12,8.94,2.66,9.71-3.57-5.6-4.34-4.71,2.73,6.48,4.58,9.29,4.83,6.75,5.38,7.45Z" transform="translate(-63.79 -51.46)"/><path class="cls-38" d="M184.69,248a3,3,0,1,0-.89,4.17A3,3,0,0,0,184.69,248Z" transform="translate(-63.79 -51.46)"/><path class="cls-67" d="M185.88,293.71c6.35,4.48,12.71-1.79,12.71-1.79-3.26,18.52-5,41.89-6.37,51.07h13.43c3.71-28.81,13.6-102.88,13.6-102.88s-13,2.62-15.66,4.8-11.24,28.87-11.24,28.87l-4.54-28-13.29,4.92S179.53,289.23,185.88,293.71Z" transform="translate(-63.79 -51.46)"/><path class="cls-68" d="M246.59,343,245,317.69h8.47s2.56-38.18,2.28-49.17-.77-17.6-3.71-21.59c-2.29-3.1-16.36-7.29-16.36-7.29-4.11,96.17-5,103.35-5,103.35Z" transform="translate(-63.79 -51.46)"/><path class="cls-38" d="M245,317.69c-1.81,1.74-5.5,2.22-4.35,5.52,0,0-3.26,3.19-2.75,5.5.3,1.34,1,.51,1.79.33s1.36.27,2.08.29,1.84-.4,2.73-.35,2.1,1,3,.6c1.1-.43,1.35-2.14,1.78-3.08a55.86,55.86,0,0,0,1.62-8.81Z" transform="translate(-63.79 -51.46)"/><path class="cls-63" d="M229.52,344.6a3.92,3.92,0,0,1,6.62-4,3.81,3.81,0,0,1,3-1.55,3.37,3.37,0,0,1,2.78,1.5c1-1.48,4.07-1.71,5.32-.41a3.16,3.16,0,0,1-.58,4.66,3.17,3.17,0,0,1,.07,4.3,3.46,3.46,0,0,1-4.5.38c-1.07,1.1-2.7,2.13-4.21,1.86a4.79,4.79,0,0,1-3.47-2.73,5.87,5.87,0,0,1-3,.73,3.12,3.12,0,0,1-2.57-1.48C228.5,347,228.67,345.18,229.52,344.6Z" transform="translate(-63.79 -51.46)"/><path class="cls-63" d="M189.63,344.6a3.92,3.92,0,0,1,6.62-4,3.81,3.81,0,0,1,3-1.55,3.37,3.37,0,0,1,2.78,1.5c1-1.48,4.07-1.71,5.31-.41a3.16,3.16,0,0,1-.57,4.66,3.17,3.17,0,0,1,.07,4.3,3.46,3.46,0,0,1-4.5.38c-1.07,1.1-2.7,2.13-4.21,1.86a4.79,4.79,0,0,1-3.47-2.73,5.87,5.87,0,0,1-3,.73,3.12,3.12,0,0,1-2.57-1.48C188.61,347,188.78,345.18,189.63,344.6Z" transform="translate(-63.79 -51.46)"/><path class="cls-69" d="M199.48,281.6c-1,5.19-7.81,11.73-12.21,12.92,5.86,2.78,11.32-2.6,11.32-2.6,2.08-13.18,7.88-37.86,7.88-37.86l-.92-5.75S201,273.91,199.48,281.6Z" transform="translate(-63.79 -51.46)"/><polygon class="cls-70" points="175.13 265.73 181.92 202.95 184.12 200.21 180.57 202.95 175.13 265.73"/><path class="cls-71" d="M210.27,207.79c2.72-.88,5.64-.77,8.49-.71s5.79.08,8.45-1,5-3.4,5.18-6.25a10.37,10.37,0,0,0,6.85,8.48c1.26,5.57,1,11.66.69,17.37a5,5,0,0,0,.35,2.72,1.63,1.63,0,0,0,2.34.65c.6-.52.5-1.46.34-2.24a40.73,40.73,0,0,1-1.37-7.47c-.06-2.53.74-5.26,2.77-6.78s5.41-1.25,6.64,1c1.07-6-1.56-12.24-6-16.37s-10.44-6.29-16.46-6.91c-4.78-.49-10.2.2-13.29,3.89C211.78,198.34,213.63,203.52,210.27,207.79Z" transform="translate(-63.79 -51.46)"/><ellipse class="cls-12" cx="230.32" cy="398.28" rx="39.97" ry="3.19"/><polygon class="cls-72" points="241.06 379.44 240.5 386.07 242.11 390.39 249.88 387.95 251.75 383.03 251.53 375.75 241.06 379.44"/><polygon class="cls-72" points="216.16 387.59 217.25 379.71 208.22 379.71 207.58 390.51 216.16 387.59"/><path class="cls-73" d="M311.65,304.94H276.79v11.31h0l-4.72,56.95h0c0,.09,0,.17,0,.26l-4.32,60.87c6.87,2.66,15.09,1.06,15.09,1.06l8.17-60h0l6.83-48h2.91l1.53,47.24,1,61c7.08,2.06,15.13-.26,15.13-.26l2.91-60.75,1.53-58.41h0V304.94Z" transform="translate(-63.79 -51.46)"/><path class="cls-16" d="M326.75,258.79l-5.06,25,3.87,31.64s-27.13,9.28-52.29,1.48c0,0,4-36.54,6.31-65.19l-6.31-4.88c5.54-5.14,24.94-11,30.46-11.09,9.85-.07,29.9,11.43,30.54,13.84Z" transform="translate(-63.79 -51.46)"/><path class="cls-16" d="M281.44,282.56c.91-6.38,2.8-19.93,4.59-28.2h0a7.7,7.7,0,0,0-14.86-4h0c-1.92,6.41-3.29,16.3-5,27.9C270.32,280.67,280.07,282.35,281.44,282.56Z" transform="translate(-63.79 -51.46)"/><path class="cls-16" d="M321.57,280.79s-.65-15.63-.83-24.54h0a7.7,7.7,0,0,1,14.86-4h0c1.92,6.4,2.67,16.4,2.51,28.8A113.6,113.6,0,0,1,321.57,280.79Z" transform="translate(-63.79 -51.46)"/><path class="cls-74" d="M269.7,279.75c0,6.41.92,11.71,2.61,13.32,2.46,2.31,9.47,1.87,17.63.56S314.49,290,314.49,290s-12.22-6.75-22.25-8.63a36.83,36.83,0,0,0-10.55-.59,15.5,15.5,0,0,0-4.46,1A63.13,63.13,0,0,1,269.7,279.75Z" transform="translate(-63.79 -51.46)"/><path class="cls-42" d="M308.57,290.85l-5.18.75c-7-3.28-21.58-7.92-21.25-10.81l4.77-.08Z" transform="translate(-63.79 -51.46)"/><path class="cls-74" d="M277.23,281.77s29,8.23,37.26,11.71c10.16,4.3,14.66,2.64,17.12-1.55,1.93-3.29,2.23-4.87,2.84-10.78a95.06,95.06,0,0,1-12.88-.36s-15.13-2.21-24.9-3C283.8,276.72,279.24,278.85,277.23,281.77Z" transform="translate(-63.79 -51.46)"/><path class="cls-74" d="M309.05,237.94,311,219.15l-14.32,7.3.13.68.4,9.46c.12,2.7,0,5.43,2.85,5.89h0C303.45,243,308.73,241.06,309.05,237.94Z" transform="translate(-63.79 -51.46)"/><path class="cls-42" d="M297.05,233l-.25-5.87-.13-.68,14.32-7.3-.91,8.87C307.52,231.86,302.46,233,297.05,233Z" transform="translate(-63.79 -51.46)"/><path class="cls-74" d="M287.12,211.38c.07-4.48-.2-10.92,1.59-15.6h0a9.19,9.19,0,0,1,3.78-4.83c2-1.42,4.7-2.33,8.81-2.66,8.62-.69,14.23,2.55,18,8.16,2.79,4.18,1.6,9.67,1,11.65,1.59.15,3.81,1.11,3.31,5.48-.78,6.67-5.61,6.8-7,7.09,0,0-2.66,11.88-17.32,10.74S287,218.91,287.12,211.38Z" transform="translate(-63.79 -51.46)"/><path class="cls-46" d="M303.41,218.08a16.54,16.54,0,0,1-7,1.29s-.86,4.19,3.92,3.6S303.41,218.08,303.41,218.08Z" transform="translate(-63.79 -51.46)"/><path class="cls-47" d="M299.45,220.18a9.88,9.88,0,0,1,1.35-1.24,20.23,20.23,0,0,0,2.61-.86s1.73,4.3-3.05,4.89a4.59,4.59,0,0,1-2.44-.23A9.51,9.51,0,0,1,299.45,220.18Z" transform="translate(-63.79 -51.46)"/><path class="cls-16" d="M298,219.4a18.88,18.88,0,0,0,5.39-1.32,5,5,0,0,1,.3,1.41,23.81,23.81,0,0,1-5.67,1.16C298,220.23,298,219.81,298,219.4Z" transform="translate(-63.79 -51.46)"/><path class="cls-42" d="M297.21,216.51a.5.5,0,0,0-.16.6,1.46,1.46,0,0,0,1.83.88c.28-.12.4-.32.37-.51-.09-.38-.48-.62-.86-.81A1.48,1.48,0,0,0,297.21,216.51Z" transform="translate(-63.79 -51.46)"/><path class="cls-43" d="M287.44,217.4a3.61,3.61,0,1,0,3.78-3.44A3.62,3.62,0,0,0,287.44,217.4Z" transform="translate(-63.79 -51.46)"/><path class="cls-43" d="M305.76,217.92a3.61,3.61,0,1,0,3.77-3.45A3.61,3.61,0,0,0,305.76,217.92Z" transform="translate(-63.79 -51.46)"/><path class="cls-43" d="M321.71,211.14c.51,1.76-.22,3.62-.93,5.32a2.88,2.88,0,0,1-.89,1.34,1,1,0,0,1-1.43-.23c-.23-.48.11-1,.38-1.47s.41-1.14,0-1.43c-.21-.13-.48-.12-.7-.24-.47-.25-.47-.92-.35-1.44a8.15,8.15,0,0,1,.8-2.07c.35-.63.9-1.28,1.63-1.27S321.5,210.41,321.71,211.14Z" transform="translate(-63.79 -51.46)"/><path class="cls-75" d="M302.14,205.61c.13.37,1.45.24,2.93.63s2.6,1.08,2.89.82c.13-.13,0-.53-.43-1a4.65,4.65,0,0,0-4.55-1.13C302.38,205.15,302.08,205.44,302.14,205.61Z" transform="translate(-63.79 -51.46)"/><path class="cls-76" d="M291.52,206.47c.22.33,1.37-.08,2.78-.3s2.64-.22,2.74-.6-1.21-1.06-3-.77S291.29,206.18,291.52,206.47Z" transform="translate(-63.79 -51.46)"/><path class="cls-77" d="M297.54,212c.13.61-2,.33-3,0s-2.84-.78-2.53-1.79,2-.4,3,0C295.64,210.45,297.41,211.41,297.54,212Z" transform="translate(-63.79 -51.46)"/><path class="cls-78" d="M302.38,212c-.13.61,2,.33,3,0s2.83-.78,2.52-1.79-2-.4-3,0C304.27,210.45,302.5,211.41,302.38,212Z" transform="translate(-63.79 -51.46)"/><path class="cls-79" d="M320.31,208.08c-2.67-.59-4.64,2.84-4.64,7.95h-1.45l.31-7.71s-3.41-1.64-3.93-7.18c0,0-15.74,4-22.52,1.74,0,0-.55,4.94-1,8.5,0,0-1.43-8.44-1.54-11.95,0,0-3.41-1.55-3.2-7s6.1-6.62,6.1-6.62l-.42,3a27.28,27.28,0,0,1,15.59-4.24c8.71.51,14.71,2.67,14.61,6.87,0,0,3.92-.77,5.48,2S320.31,208.08,320.31,208.08Z" transform="translate(-63.79 -51.46)"/><polygon class="cls-14" points="195.75 395.48 195.14 398.28 215.75 398.28 215.86 395.48 195.75 395.48"/><path class="cls-16" d="M259.54,446.94a12.47,12.47,0,0,1,3.3-5.54,29.23,29.23,0,0,0,3.63-4s-1.85-5.38-.7-6.05,9.42,0,9.42,0-.87,9.07-.43,9.36,4.95-2,5.19-1.62-.31,7.88-.31,7.88Z" transform="translate(-63.79 -51.46)"/><path class="cls-16" d="M330.92,441.86c-14.86-3.53-15.34-7.78-15.34-7.78a7.16,7.16,0,0,1-4.79,4.81c-2.66.85-6.51-1.36-6.51-1.36l-1.08,9.41h30.3S334.19,442.63,330.92,441.86Z" transform="translate(-63.79 -51.46)"/><polygon class="cls-14" points="239.42 395.48 238.8 398.28 269.61 398.28 269.71 395.48 239.42 395.48"/><path class="cls-16" d="M315.58,434.08v-2.53l4.64-.77-1.4,7.7S316,438,315.58,434.08Z" transform="translate(-63.79 -51.46)"/><ellipse class="cls-12" cx="310.56" cy="398.28" rx="38.51" ry="3.26"/><path class="cls-80" d="M370.81,215.29a7.14,7.14,0,0,0-5.61,5.54c-1,4.79,2.56,8.38,2.56,8.38Z" transform="translate(-63.79 -51.46)"/><path class="cls-80" d="M377.36,205.06l-1.71,2c-1-3.36-2.53-8.7-2-9.85.73-1.7,12.25,3.9,12.25,3.9Z" transform="translate(-63.79 -51.46)"/><path class="cls-81" d="M377,204.76s-2.1-6.1-1.62-6.57,6.23,2.45,6.23,2.45Z" transform="translate(-63.79 -51.46)"/><path class="cls-82" d="M377.28,200c-1.49.79-.71,4.11,1.56,2.39S378.7,199.19,377.28,200Z" transform="translate(-63.79 -51.46)"/><path class="cls-80" d="M406.74,206.42l1.71,2c1-3.36,2.53-8.7,2-9.85-.73-1.7-12.25,3.9-12.25,3.9Z" transform="translate(-63.79 -51.46)"/><path class="cls-81" d="M407.13,206.12s2.1-6.1,1.62-6.57-6.23,2.45-6.23,2.45Z" transform="translate(-63.79 -51.46)"/><path class="cls-82" d="M406.82,201.31c1.49.79.71,4.11-1.56,2.39S405.4,200.55,406.82,201.31Z" transform="translate(-63.79 -51.46)"/><path class="cls-83" d="M404.47,244.84c3-2,6-11.77,6.29-24s-4.19-15.71-7.64-16.63c0,0-2.42-5.63-13.3-6s-14.64,2.35-19,15.87-4.61,23.27-3.05,25.71C371.53,245.72,399.09,248.46,404.47,244.84Z" transform="translate(-63.79 -51.46)"/><path class="cls-84" d="M367.37,267.71c-11.89,2-29.09,9.76-31.7,7.06-5.89-6.08,7.3-12.36,7.3-12.36l18-7,6.17,8.58Z" transform="translate(-63.79 -51.46)"/><path class="cls-84" d="M334.17,272.21c-3.45-13.17-4.47-40.34-3.61-43.18s1.46-4.36,3.42-3.15,2.74-2.09,4.19-.78,2.87-2.3,3.8-.32-1.89,5.49-1.89,5.49,2.24,3.49-3,5.58c-6.43,2.57,7.85,30.22,8,30.77C345.86,269.44,334.17,272.21,334.17,272.21Z" transform="translate(-63.79 -51.46)"/><path class="cls-84" d="M396.89,359.63c0,4.21,1.06,8.76.91,10.71s3.57,12.87,4,17.93,2.65,50.22,2.65,50.22l-4.19,5.31-4.75-2.18s-.89-18.69-4.64-28.84-6-25.91-6.11-38.29-8-24.77-8.08-35.15S396.89,359.63,396.89,359.63Z" transform="translate(-63.79 -51.46)"/><path class="cls-16" d="M372,249.48c-4,.79-18.42,7.66-18.42,7.66l5.83,13.33,9.25-2.7,1.14-11.1Z" transform="translate(-63.79 -51.46)"/><path class="cls-16" d="M374.63,248.61c16.44-5.18,30.69,6,34.7,11.76,0,0-17.52,14.43-29.41,12.44s-15.69-20.12-15.69-20.12A61.61,61.61,0,0,1,374.63,248.61Z" transform="translate(-63.79 -51.46)"/><path class="cls-84" d="M380.93,250c-.78,2.27,2.68,2.7,4.5,2.74,2.71.08,3.93-.47,4.6-1.75l8.78-20.27-15.88,7.16,0,.67Z" transform="translate(-63.79 -51.46)"/><path class="cls-42" d="M385.08,244.91a15.68,15.68,0,0,0,4.87-1.42,31.26,31.26,0,0,0,4.33-2.37l4.53-10.45-15.88,7.16,0,.67-1.15,6.72C382.85,245.11,384,245,385.08,244.91Z" transform="translate(-63.79 -51.46)"/><path class="cls-84" d="M373.59,355s-3.71,5.21-2.79,14.71c1.88,19.35-2.39,33.06-3.18,38.28-1.35,8.85-3.26,16.55-3.42,25.25L355,430.05c-.36-9.25.45-18.59.42-27.84-.06-16.08,0-32.33-.85-48.41C354.48,351.2,373.59,355,373.59,355Z" transform="translate(-63.79 -51.46)"/><path class="cls-42" d="M383.62,365.89c-2.22-9.42-6.91-18.58-6.93-26.55,0-10.39,20.2,20.29,20.2,20.29a42.8,42.8,0,0,0,.39,5.26A60.36,60.36,0,0,1,383.62,365.89Z" transform="translate(-63.79 -51.46)"/><path class="cls-42" d="M355,364c-.1-3.39-.22-6.78-.39-10.15-.13-2.6,19,1.23,19,1.23s-2.42,3.41-2.86,9.72C371.49,365.36,360.25,364.16,355,364Z" transform="translate(-63.79 -51.46)"/><polygon class="cls-84" points="300.42 381.81 300.91 387.61 299.5 391.38 292.7 389.25 291.07 384.94 291.26 378.59 300.42 381.81"/><polygon class="cls-14" points="348.53 395.83 349.07 398.28 331.05 398.28 330.96 395.83 348.53 395.83"/><path class="cls-16" d="M412.32,447.3a10.9,10.9,0,0,0-2.89-4.85,25.24,25.24,0,0,1-3.17-3.52s1.62-3.73.61-4.32-8.23,0-8.23,0,.76,7,.38,7.21-4.33-1.71-4.54-1.42.26,6.9.26,6.9Z" transform="translate(-63.79 -51.46)"/><path class="cls-16" d="M341.41,442.85c13-3.09,13.4-6.8,13.41-6.8a6.26,6.26,0,0,0,4.18,4.21c2.33.74,5.69-1.19,5.69-1.19l.94,8.23H339.15S338.55,443.53,341.41,442.85Z" transform="translate(-63.79 -51.46)"/><path class="cls-16" d="M351.72,439.13a55.6,55.6,0,0,0,1.95-5.86c.23-1,3.92,1.12,3.93,2.06S357.21,441.59,351.72,439.13Z" transform="translate(-63.79 -51.46)"/><path class="cls-80" d="M352.37,304.8c-1.24,10.79-1.46,55.6-1.46,55.6s12.22,3.42,22.61,1.91l1-28.56L378,363.29s15,1.64,22.63-2.59l-3.51-26.95s2-17.57-3.23-27.23S352.37,304.8,352.37,304.8Z" transform="translate(-63.79 -51.46)"/><path class="cls-85" d="M351.86,312.1c.14-3.07.31-5.6.51-7.3,0,0,36.34-7.94,41.55,1.72a32.27,32.27,0,0,1,3.13,11.13,10.3,10.3,0,0,1-13-2A62.6,62.6,0,0,1,351.86,312.1Z" transform="translate(-63.79 -51.46)"/><polygon class="cls-85" points="303.62 272.64 308.39 278.88 310.1 299.68 310.68 282.29 310.03 277.08 303.62 272.64"/><path class="cls-16" d="M368.69,257.14s-13.19,7.51-4.12,16.83l-3.15,14.81,31.34,8s7.65-23.26,9.95-28.15Z" transform="translate(-63.79 -51.46)"/><path class="cls-16" d="M365,273.08l-14,36.4s25.78,10.85,47.17.6l-6.81-18.6Z" transform="translate(-63.79 -51.46)"/><path class="cls-84" d="M404.18,219.87s5.84-1.25,5.08,5.3-5.51,6.68-6.91,7c0,0-2.61,11.67-17,10.55s-12-12.26-11.92-19.65-.72-20.22,8.7-21.16S405,201.54,404.18,219.87Z" transform="translate(-63.79 -51.46)"/><path class="cls-86" d="M389.57,230.6a3.52,3.52,0,1,0,3.68-3.36A3.52,3.52,0,0,0,389.57,230.6Z" transform="translate(-63.79 -51.46)"/><path class="cls-87" d="M387.46,218.59c-.07-.1.21-.48.86-.86a5,5,0,0,1,2.85-.57,4.93,4.93,0,0,1,2.71,1.11,3.06,3.06,0,0,1,.6.65c.1.18.13.3.09.35s-.17,0-.36-.07l-.71-.36a7.34,7.34,0,0,0-2.4-.71,7.24,7.24,0,0,0-2.51.24C388,218.55,387.54,218.71,387.46,218.59Z" transform="translate(-63.79 -51.46)"/><path class="cls-88" d="M383.7,218.88c-.1.1-.47-.14-1.07-.43a6.62,6.62,0,0,0-4.91-.47l-.77.21c-.19.05-.32.06-.36,0s0-.17.16-.32a2.65,2.65,0,0,1,.71-.53,5,5,0,0,1,2.87-.58,4.92,4.92,0,0,1,2.68,1.11C383.58,218.36,383.79,218.79,383.7,218.88Z" transform="translate(-63.79 -51.46)"/><path class="cls-86" d="M374.17,229.88a3.53,3.53,0,1,0,3.69-3.36A3.54,3.54,0,0,0,374.17,229.88Z" transform="translate(-63.79 -51.46)"/><path class="cls-86" d="M407.38,222.79c.5,1.74-.21,3.56-.9,5.23a2.94,2.94,0,0,1-.88,1.32,1,1,0,0,1-1.4-.23c-.23-.47.1-1,.36-1.44s.41-1.13,0-1.41a6.78,6.78,0,0,0-.68-.23c-.46-.24-.46-.91-.34-1.42a8.2,8.2,0,0,1,.78-2c.35-.62.89-1.26,1.6-1.25S407.18,222.08,407.38,222.79Z" transform="translate(-63.79 -51.46)"/><path class="cls-42" d="M385.46,229.36c0-.09-.18-.11-.39-.11a2,2,0,0,1-.69-.08.38.38,0,0,1-.21-.17.68.68,0,0,1,0-.24c0-.27.26-.87.39-1.39.58-2.17.77-4,.42-4.1s-1.1,1.59-1.68,3.76a8.75,8.75,0,0,0-.34,1.68,1.46,1.46,0,0,0,.42,1,1.34,1.34,0,0,0,.86.34,1.55,1.55,0,0,0,1-.37C385.43,229.57,385.49,229.44,385.46,229.36Z" transform="translate(-63.79 -51.46)"/><path class="cls-42" d="M387.85,230.35c-.34-.15-1.12.85-2.48,1.39s-2.6.44-2.73.79c-.06.16.23.45.84.62a3.95,3.95,0,0,0,4.22-1.77C388,230.83,388,230.42,387.85,230.35Z" transform="translate(-63.79 -51.46)"/><polygon class="cls-14" points="301.85 395.83 302.39 398.28 275.46 398.28 275.36 395.83 301.85 395.83"/><path class="cls-89" d="M388.27,224.14c-.13.61,2,.33,3,0s2.87-.79,2.56-1.82-2-.4-3,0C390.19,222.57,388.4,223.53,388.27,224.14Z" transform="translate(-63.79 -51.46)"/><path class="cls-90" d="M382.48,224.14c.13.61-2,.33-3,0s-2.86-.79-2.55-1.82,2-.4,3,0C380.57,222.57,382.36,223.53,382.48,224.14Z" transform="translate(-63.79 -51.46)"/><path class="cls-91" d="M404.18,219.87s-2.18,6.91-3.63,9.93l.31-11.47s-3,18.13-4.46,20.26.34-13.15.34-17.27-3.45-14.95-3.45-14.95-1.91,8.24-6.63,9A87.35,87.35,0,0,1,375,216l-2.45,12.77s-2.57-22.49,6-26.55,18.44-1.51,22,1.43,5.52,10.75,5.52,10.75Z" transform="translate(-63.79 -51.46)"/><path class="cls-80" d="M404.22,218.21c1.73-8.17.38-12.42-1.1-14,0,0,9.29-1.69,4.29,15.12Z" transform="translate(-63.79 -51.46)"/><path class="cls-82" d="M406.94,218.6s-1.5-2.15-3.13-.93-2.44,12.27-1.35,14.78,2.89,0,2.89,0Z" transform="translate(-63.79 -51.46)"/><path class="cls-80" d="M406.94,218.6s7.72-.28,6.58,8.1a6.76,6.76,0,0,1-8.45,5.82A22.08,22.08,0,0,1,406.94,218.6Z" transform="translate(-63.79 -51.46)"/><path class="cls-84" d="M395.47,310.37c-1.25,1.28-3.12.46-4.85-.37s-6.75-3.25-8-2.94-4,3.41-3.79,4.07,3.86-2.37,4.3-2.31,2.22.69,2.22.69-3.61,1.12-4.43,1.92-2.47,2.88-2.4,3.26S380,315,380,315s-1,1.17-.34,1.36,4.56-2.09,5.25-2.25,1.64,3.88,6.06,3.73,13.93-9.58,18.88-13.48,14.78-13.85,15.57-17.66-10-18.09-10-18.09l-9.28,5.83s7.71,9.71,8,10.28S398.1,307.7,395.47,310.37Z" transform="translate(-63.79 -51.46)"/><path class="cls-16" d="M405.42,256.13C413.8,263,420.12,273,420.12,273l-11.35,7.73L397.1,269.81l1.17-6.92Z" transform="translate(-63.79 -51.46)"/><ellipse class="cls-12" cx="388.86" cy="398.28" rx="39.79" ry="3.59"/><polygon class="cls-92" points="373 380.2 372.35 387.59 365.68 390.59 365.68 377.62 373 380.2"/><polygon class="cls-92" points="397.24 379.44 396.68 386.07 398.29 390.39 406.06 387.95 407.93 383.03 409.68 375.75 397.24 379.44"/><path class="cls-92" d="M441.27,248.6a7.71,7.71,0,1,1-7.71-7.7A7.71,7.71,0,0,1,441.27,248.6Z" transform="translate(-63.79 -51.46)"/><path class="cls-92" d="M423.69,317.93a3.39,3.39,0,1,1-2.42-4.13A3.38,3.38,0,0,1,423.69,317.93Z" transform="translate(-63.79 -51.46)"/><path class="cls-92" d="M423.69,317.93c0,2.55,4.24,5.09,5.23,6.86s-.66,3.89-.66,3.89a16.55,16.55,0,0,1-.47,3.43c-.4,1.19-1.74,1.26-3,.07s-1.94.71-3.64.3-2.09-1.94-4.15-1.22S417,317,417,317Z" transform="translate(-63.79 -51.46)"/><path class="cls-92" d="M423.69,317.93a3.39,3.39,0,1,1-2.42-4.13A3.38,3.38,0,0,1,423.69,317.93Z" transform="translate(-63.79 -51.46)"/><path class="cls-92" d="M435.87,286.16l0-.3c0-.13,0-.26,0-.39s0-.09,0-.13c.17-2.81,2.38-22.29,5.09-34.81l-14.86-4c-3,9.87-3.26,34.14-3.29,38.24-1,5.19-5.64,28.48-5.84,32.27l6.66.93c.73-4.31,4.59-12.09,7.78-19.49a100.92,100.92,0,0,0,4.15-11.14l0-.07c0-.16.07-.25.07-.25s0-.09,0-.13.06-.25.08-.38A2.87,2.87,0,0,0,435.87,286.16Z" transform="translate(-63.79 -51.46)"/><path class="cls-93" d="M423.24,271.28c-.1,2.05-.17,4-.22,5.73a32.22,32.22,0,0,0,12.38,4.13A23.4,23.4,0,0,0,423.24,271.28Z" transform="translate(-63.79 -51.46)"/><path class="cls-16" d="M436.42,278.74c.92-6.39,2.81-19.94,4.6-28.21h0a7.7,7.7,0,0,0-14.85-4h0c-1.92,6.4-3.29,16.29-5,27.9C425.31,276.84,435.06,278.53,436.42,278.74Z" transform="translate(-63.79 -51.46)"/><path class="cls-94" d="M456.06,314.31a11.24,11.24,0,1,0,11.24-11.24A11.24,11.24,0,0,0,456.06,314.31Z" transform="translate(-63.79 -51.46)"/><path class="cls-95" d="M477,372.79l-2.91,60.76s-8.05,2.31-15.13.26l-1-61Z" transform="translate(-63.79 -51.46)"/><polygon class="cls-96" points="394.17 321.33 392.27 262.85 414.76 262.85 413.22 321.33 394.17 321.33"/><path class="cls-97" d="M458,372.79a9.53,9.53,0,1,0,9.52-9.52A9.53,9.53,0,0,0,458,372.79Z" transform="translate(-63.79 -51.46)"/><circle class="cls-94" cx="443.77" cy="314.31" r="11.24" transform="translate(-111.53 30.17) rotate(-9.98)"/><path class="cls-98" d="M446.72,373.26l-8.21,60.27s-8.22,1.6-15.09-1.07l4.32-60.86Z" transform="translate(-63.79 -51.46)"/><polygon class="cls-99" points="363.98 319.87 368.82 261.56 391.15 264.14 382.9 322.06 363.98 319.87"/><path class="cls-100" d="M427.74,371.6a9.53,9.53,0,1,0,10.32-8.66A9.51,9.51,0,0,0,427.74,371.6Z" transform="translate(-63.79 -51.46)"/><path class="cls-94" d="M432.49,303.07h46.05v11.32h0a11.24,11.24,0,0,1-11.24,11.16H443.77a11.19,11.19,0,0,1-11.23-11.16h-.05Z" transform="translate(-63.79 -51.46)"/><path class="cls-94" d="M432.49,303.07h46.05v11.32h0a11.24,11.24,0,0,1-11.24,11.16H443.77a11.19,11.19,0,0,1-11.23-11.16h-.05Z" transform="translate(-63.79 -51.46)"/><circle class="cls-26" cx="369.78" cy="197.14" r="7.7"/><path class="cls-26" d="M475.48,250.5a7.71,7.71,0,1,0,7.7-7.71A7.7,7.7,0,0,0,475.48,250.5Z" transform="translate(-63.79 -51.46)"/><path class="cls-101" d="M453.91,325.87c-11.5,0-24.23-2.54-24.68-3.78l-.13-5.7a11.77,11.77,0,0,1-6.23-8.05c-1.09-5.72,6.16-20.57,6.53-27.15s.07-39.11.07-39.11,12.9-9.92,27.33-10.9,31.62,13.67,31.62,13.67l-7.69,38.66s2.39,24.07,2,28.55-3,4.15-3,4.15v7A124.28,124.28,0,0,1,453.91,325.87Z" transform="translate(-63.79 -51.46)"/><path class="cls-102" d="M459,290.85l-16.29-.38c.26,4.37-2.09,8.93-7.05,9.93l-1.48,12.83,32.69,1.62.25-13.26C461.09,301.08,458.39,295.73,459,290.85Z" transform="translate(-63.79 -51.46)"/><path class="cls-103" d="M439.58,238.74s-2.09-6.18.84-10.7,19.46,0,19.46,0a15.43,15.43,0,0,1,5.19-3.85c3.23-1.44,15.27-1.15,16.51,3.85s-3.91,12.07-3.91,12.07Z" transform="translate(-63.79 -51.46)"/><path class="cls-92" d="M464,234.12,466,215.33l-14.32,7.29.13.69.4,9.45c.12,2.7,0,5.43,2.85,5.89h0C458.44,239.19,463.72,237.23,464,234.12Z" transform="translate(-63.79 -51.46)"/><path class="cls-93" d="M452,229.17l-.25-5.86-.13-.69L466,215.33l-.91,8.86C462.51,228,457.45,229.19,452,229.17Z" transform="translate(-63.79 -51.46)"/><path class="cls-92" d="M442.11,207.55c.06-4.47-.21-10.91,1.58-15.6h0a9.19,9.19,0,0,1,3.78-4.83c2-1.41,4.7-2.33,8.81-2.65,8.62-.69,14.22,2.54,18,8.15,2.79,4.19,1.6,9.68,1,11.66,1.59.14,3.81,1.1,3.3,5.47-.77,6.67-5.6,6.8-7,7.09,0,0-2.65,11.88-17.31,10.75S442,215.08,442.11,207.55Z" transform="translate(-63.79 -51.46)"/><path class="cls-104" d="M441.63,192.85c-7.37-5-4.2-16.12-1.13-17.51l16.61,8c6.7,1.86,12.86,0,15.41,1.92a8.75,8.75,0,0,1,3.09,3.72l4-4.94s2.39,6-2.29,8a6.2,6.2,0,0,1,2.42,3.72c1.29,5.07-2.48,9.17-2.48,9.17a3.79,3.79,0,0,0-3.35-.33c-1.7.6-3.61,3.63-3.51,6.63l-1.56-.21.2-6.31s-2.07-1.53-3.85-6.79a15.57,15.57,0,0,1-8.77,1.64l4.88-4.74A22.08,22.08,0,0,1,448,199.54c-5.44.26-11.23-2.1-14-6.79C436.32,192.88,439.28,192.72,441.63,192.85Z" transform="translate(-63.79 -51.46)"/><path class="cls-93" d="M452.2,212.68a.52.52,0,0,0-.16.61,1.47,1.47,0,0,0,1.83.87.49.49,0,0,0,.37-.5c-.09-.38-.49-.62-.86-.82A1.48,1.48,0,0,0,452.2,212.68Z" transform="translate(-63.79 -51.46)"/><path class="cls-105" d="M456.32,200.65v0c1.29-.65,5.28-.17,8,1.28a1.69,1.69,0,0,1-1.34,1.56,4.88,4.88,0,0,1-2.18-.08c-1.27-.24-2.42-.63-3.64-.94A1.25,1.25,0,0,1,456.32,200.65Z" transform="translate(-63.79 -51.46)"/><path class="cls-106" d="M451.53,200.59h0a9.06,9.06,0,0,0-7.32.77,1.77,1.77,0,0,0,1.24,1.61,4.1,4.1,0,0,0,2,.06c1.11-.15,2.13-.44,3.18-.66A1.26,1.26,0,0,0,451.53,200.59Z" transform="translate(-63.79 -51.46)"/><path class="cls-107" d="M462,207.16a1.91,1.91,0,1,1-2-1.83A1.91,1.91,0,0,1,462,207.16Z" transform="translate(-63.79 -51.46)"/><path class="cls-108" d="M451.77,207.16a1.91,1.91,0,1,1-2-1.83A1.9,1.9,0,0,1,451.77,207.16Z" transform="translate(-63.79 -51.46)"/><path class="cls-109" d="M442.43,213.57a3.61,3.61,0,1,0,3.78-3.44A3.61,3.61,0,0,0,442.43,213.57Z" transform="translate(-63.79 -51.46)"/><path class="cls-109" d="M460.75,214.09a3.61,3.61,0,1,0,3.77-3.44A3.61,3.61,0,0,0,460.75,214.09Z" transform="translate(-63.79 -51.46)"/><path class="cls-93" d="M476.7,207.31c.51,1.76-.22,3.63-.93,5.32a2.78,2.78,0,0,1-.9,1.34,1,1,0,0,1-1.42-.23c-.23-.47.11-1,.37-1.47s.42-1.14,0-1.43a7,7,0,0,0-.69-.23c-.47-.25-.47-.93-.35-1.45a7.94,7.94,0,0,1,.8-2.06c.35-.64.9-1.29,1.63-1.28S476.49,206.58,476.7,207.31Z" transform="translate(-63.79 -51.46)"/><path class="cls-93" d="M452,216.93c-.1.16.17.55.84.87a4,4,0,0,0,5.07-1.62c.36-.64.35-1.12.19-1.19-.35-.16-1.23,1.13-2.84,1.63S452.18,216.6,452,216.93Z" transform="translate(-63.79 -51.46)"/><path class="cls-92" d="M475.48,250.5a7.71,7.71,0,1,0,7.7-7.71A7.7,7.7,0,0,0,475.48,250.5Z" transform="translate(-63.79 -51.46)"/><path class="cls-92" d="M484.66,320.21a3.39,3.39,0,1,0,3.39-3.39A3.39,3.39,0,0,0,484.66,320.21Z" transform="translate(-63.79 -51.46)"/><path class="cls-92" d="M484.66,320.21c-.67,2.46-5.39,3.85-6.79,5.32s-.34,3.94-.34,3.94a16.26,16.26,0,0,0-.41,3.43c.08,1.25,1.37,1.66,2.9.82s1.7,1.18,3.45,1.22,2.51-1.36,4.33-.14S491.34,321,491.34,321Z" transform="translate(-63.79 -51.46)"/><path class="cls-92" d="M484.66,320.21a3.39,3.39,0,1,0,3.39-3.39A3.39,3.39,0,0,0,484.66,320.21Z" transform="translate(-63.79 -51.46)"/><path class="cls-92" d="M493.88,287.23s-.06-28.05-3.29-38.85l-14.86,4c2.71,12.52,4.91,32,5.09,34.81A94.45,94.45,0,0,0,482,299.39c1.22,8,3,16.47,2.62,20.82l6.68.77c.77-3.79,2.23-28.49,2.5-33C493.86,287.71,493.88,287.47,493.88,287.23Z" transform="translate(-63.79 -51.46)"/><path class="cls-93" d="M479.69,277c.33,2.61.59,4.9.79,6.69a56.87,56.87,0,0,0,13.25-4.48c0-1.59-.1-3.34-.18-5.2a40.59,40.59,0,0,0-9,1.44C482.88,275.92,481.28,276.45,479.69,277Z" transform="translate(-63.79 -51.46)"/><path class="cls-16" d="M479,280.61s-1.5-19.92-3.29-28.19h0a7.6,7.6,0,0,1-.25-1.92,7.7,7.7,0,0,1,15.1-2.12h0c1.91,6.41,5.59,17.12,5.59,27.77C496.18,276.15,487.35,281.41,479,280.61Z" transform="translate(-63.79 -51.46)"/><polygon class="cls-14" points="349.97 395.48 349.36 398.28 371.93 398.28 372.04 395.48 349.97 395.48"/><path class="cls-16" d="M413.76,446.94s-.25-1.77,2.32-4.22a76.27,76.27,0,0,1,6.57-5.35s-1.85-5.38-.7-6.05,9.42,0,9.42,0-.87,9.07-.43,9.36,4.95-2,5.19-1.62-.31,7.88-.31,7.88Z" transform="translate(-63.79 -51.46)"/><path class="cls-16" d="M487.1,441.86c-14.86-3.53-15.34-7.78-15.34-7.78a7.16,7.16,0,0,1-4.79,4.81c-2.66.85-6.51-1.36-6.51-1.36l-1.07,9.41h30.29S490.37,442.63,487.1,441.86Z" transform="translate(-63.79 -51.46)"/><polygon class="cls-14" points="395.6 395.48 394.98 398.28 425.79 398.28 425.9 395.48 395.6 395.48"/><path class="cls-16" d="M471.76,434.08v-2.53l4.64-.77-1.4,7.7S472.17,438,471.76,434.08Z" transform="translate(-63.79 -51.46)"/><path class="cls-110" d="M457.11,183.37s13.93,9.92,17.66,21.07c0,0,3.68.1,3.88,3.51,0,0,4.74-3.07,2.93-7.61s1-5.89.19-9.76,2.06-5.17-.19-8.22-4.71,0-4.71,0-17.12-5.37-23.88-1Z" transform="translate(-63.79 -51.46)"/><path class="cls-26" d="M448.55,265.12a1,1,0,0,1-1-.87,60.34,60.34,0,0,1,2.2-24.19,1,1,0,0,1,1.22-.65,1,1,0,0,1,.66,1.22,58.41,58.41,0,0,0-2.13,23.4,1,1,0,0,1-.87,1.08Z" transform="translate(-63.79 -51.46)"/><path class="cls-26" d="M459.44,268.62a1,1,0,0,1-1-.9,108.79,108.79,0,0,1,1.2-27.33,1,1,0,0,1,1.94.33,106.76,106.76,0,0,0-1.18,26.84,1,1,0,0,1-.9,1.05Z" transform="translate(-63.79 -51.46)"/><path class="cls-111" d="M480.71,239.28l-1.77-1.09-.07.05c-2.08,2.89-15.23,1.87-15.23,1.87S474.19,245.1,480.71,239.28Z" transform="translate(-63.79 -51.46)"/><path class="cls-111" d="M447.4,240c-2.76.33-6.63-.67-8.36-3.69-.79.39-1.55.77-2.26,1.16A10,10,0,0,0,447.4,240Z" transform="translate(-63.79 -51.46)"/></g></g></svg>